<?xml version="1.0" encoding="utf-8"?>
<!-- Generator: Adobe Illustrator 16.0.0, SVG Export Plug-In . SVG Version: 6.00 Build 0)  -->
<!DOCTYPE svg PUBLIC "-//W3C//DTD SVG 1.1//EN" "http://www.w3.org/Graphics/SVG/1.1/DTD/svg11.dtd">
<svg version="1.1" id="Ebene_1" xmlns="http://www.w3.org/2000/svg" xmlns:xlink="http://www.w3.org/1999/xlink" x="0px" y="0px"
	 width="566.93px" height="566.93px" viewBox="0 0 566.93 566.93" enable-background="new 0 0 566.93 566.93" xml:space="preserve">
<rect fill="#002873" width="566.93" height="566.93"/>
<g>
	<path fill="#FFFFFF" d="M132.375,424.259l-0.603,0.255l0.381-2.556C133.009,422.274,132.692,423.401,132.375,424.259"/>
	<path fill="#FFFFFF" d="M350.218,262.867c-1.919-0.047-2.824-2.221-3.506-3.679l1.269-2.84
		C349.376,258.062,350.994,260.25,350.218,262.867"/>
	<path fill="#FFFFFF" d="M253.208,106.727c6.646,2.791,13.8,4.377,20.938,5.979c2.997,5.091,10.198,3.822,13.465,8.216l9.929,5.25
		c1.396,1.459,2.316,3.156,4.712,3.22c0.412,2.871,4.282,1.523,5.916,3.474c3.76,2.966,6.281,7.582,9.565,10.992l1.601,3.157
		c-3.774-2.728-6.312-7.09-10.547-9.818c-1.364-3.617-6.171-2.538-8.026-5.219c-2.348-2.205-5.425-3.473-7.519-6.376
		c-8.326-2.364-15.385-8.026-23.697-10.85c-3.537-2.236-7.566-4.235-12.118-3.854c-3.3-2.237-7.375-2.332-11.167-3.617
		c-1.429-0.269-2.174,0.683-3.617,1.127c-3.108-0.317-6.201-1.349-8.533-3.792l0.493-0.459
		C241.312,103.586,246.245,107.757,253.208,106.727"/>
	<path fill="#FFFFFF" d="M246.848,113.039c5.9,3.489,13.323,3.188,19.24,6.662c3.33,1.047,5.662,3.251,7.771,5.44
		c5.726,0.856,10.674,4.314,14.18,7.994c1.158,1.698,4.061,0.572,4.964,2.745c1.158,2.189,2.539,4.837,4.886,6.09
		c1.714-1.158,3.633-1.824,5.79-1.539c1.918-0.206,2.602,1.491,3.283,2.713c7.106,3.981,12.451,10.58,17.573,16.924
		c1.889,1.221,3.046,2.935,3.951,5.107l4.424,5.837c1.905,0.523,4.046,1.063,4.966,2.998c-0.507,1.174,0.665,1.936,0.175,2.871
		c-0.968-0.031-0.937-1.221-1.65-1.713c-6.393-3.014-9.833-9.564-14.751-14.228c-1.396-1.697-3.045-3.172-4.934-3.933
		c-1.396-2.189-3.759-3.681-4.171-6.313c-4.029-1.776-5.378-5.631-9.168-7.392c-1.666-0.286-2.871,0.174-4.093,1.095
		c-2.396-0.285-4.774-1.3-6.645-2.538c-1.872-2.205-2.761-5.329-5.124-6.82c-4.758-1.3-8.756-4.267-13.26-6.281
		c-1.364-2.918-5.218-1.809-7.328-3.997c-5.869-4.933-14.259-4.87-21.143-6.947c-5.028-0.603-10.771-0.492-15.513-2.268
		l-7.154-1.126l-6.455-0.381l-11.976-0.032c-3.347-0.079-6.25,1.285-9.612,1.697c1.935-1.396,4.854-3.235,7.978-3.648
		c5.457,2.268,10.358-2.395,15.576-0.365C227.433,114.039,237.902,116.671,246.848,113.039"/>
	<path fill="#FFFFFF" d="M230.668,118.908c3.332,1.27,7.868,1.855,9.217,5.71c5.694,2.046,11.879,3.854,18.113,3.521
		c5.266-0.349,7.994,6.408,13.546,3.902c3.997,3.68,10.215,3.822,13.466,8.201c3.521,2.95,7.28,6.392,11.784,8.169
		c2.554,3.41,7.154,1.126,9.962,3.822c1.855,2.918,4.424,5.615,6.518,8.042c5.711,1.571,8.693,7.376,12.674,11.31
		c4.251,2.966,8.47,6.899,12.214,10.326l-0.017,0.729c-3.567-0.809-5.393-4.917-9.184-6.201c-2.537-4.124-7.771-5.917-10.071-10.278
		c-2.109-1.729-5.218-1.555-6.837-3.998c-2.585-2.443-5.409-4.901-7.739-7.835c-6.393-2.776-12.785-5.552-17.956-10.453
		c-8.77-3.553-15.83-9.216-25.108-11.595c-5.742,0.111-11.184-2.633-16.418-4.203c-4.806,0.618-8.581-1.856-12.879-2.681
		l-8.406,1.253c-3.759-2.728-7.646-0.413-11.5,0.207c-3.807-0.556-8.645,1.49-11.69-1.459c-2.141-0.762-2.919,1.855-4.822,1.57
		c-4.822,1.094-10.088,0.968-14.656,2.537c-2.887,0.175-6.027,1.301-9.104,0.27c-0.238-0.238,0.016-0.952,0.032-1.428
		c5.107-4.203,12.482-1.633,18.732-2.443c2.903-1.379,6.932-0.095,10.072-0.983c6.25-1.284,13.181-0.412,19.43-1.713
		c3.601-0.634,7.646,0.175,11.247,0.492c1.173,0.746,2.854,0.555,4.282,0.587c0.967-0.459,0.523-1.427,0.776-2.379
		c-3.061-2.221-7.645-0.888-11.198-2.173c-5.963-1.333-12.451-0.286-18.669-0.175c-4.377,3.014-10.342,1.665-15.624,2.269
		c1.951-1.143,5.298-1.063,7.709-1.983c5.599-3.696,12.975-2.094,19.208-2.665C222.072,117.75,226.37,118.321,230.668,118.908"/>
	<path fill="#FFFFFF" d="M211.936,132.358c2.158-0.666,4.807-1.079,6.948-0.079l12.452-0.191c3.077,1.27,6.694,0.397,10.024,1.412
		c6.392,3.267,13.753,5.821,21.889,5.536c3.538,2.712,8.582,1.872,11.85,5.536c3.061,2.22,6.852,3.743,9.928,5.726
		c0.713,0.015,1.903,0.523,2.395-0.413c11.659,2.886,17.193,12.832,26.601,19.748c4.521,1.776,7.313,5.44,11.578,6.963
		c2.554,3.648,6.076,6.615,9.851,8.851c1.634,1.95,3.742,4.155,2.712,6.995c-3.791-1.523-6.328-5.647-8.898-8.582
		c-3.537-1.745-6.329-5.409-9.406-7.629c-0.952-0.016-1.205,0.444-1.459,1.158c-0.047,2.157,2.315,3.41,3.235,5.107
		c6.408,2.538,8.153,10.009,13.831,13.006c1.144,2.174,3.728,4.394,2.476,6.996l-4.22-3.68c-0.603-5.536-5.329-7.788-8.851-11.214
		c-0.666-1.697-2.824-2.22-2.775-4.14c-1.634-1.475-3.791-1.523-4.458-3.696c-2.141-1-2.569-3.411-4.202-5.361
		c-3.728-3.918-8.455-7.122-11.707-11.516c-3.98-3.442-8.707-6.424-13.926-8.216c-2.094-2.919-5.916-3.49-9.516-3.093l-0.714,0.222
		c-4.426-5.837-11.547-8.391-18.955-9.041c-3.98-3.68-9.945-4.774-15.227-3.934c-5.504-0.38-8.961-5.71-15.004-3.949
		c-4.791,0.38-10.326,1.697-15.323,0.143c-3.617,0.873-7.677,0.54-11.246-0.016c-3.632,1.602-8.597-0.92-11.547,2.364
		c1.174,0.999,3.315,1.284,4.489,2.268l7.423,0.158c11.976-0.206,24.141,1.76,35.386,2.49c2.57,2.205,7.154,0.873,9.74,3.093
		c3.331,0.793,6.408,2.3,9.771,2.125c4.473,2.982,9.484,4.298,14.718,5.599c4.711,2.744,10.184,4.552,14.894,8.01
		c5.694,2.285,14.054,3.426,16.036,10.421c1.792,5.298,9.231,5.234,10.771,10.533c2.363,1.729,3.965,4.885,7.534,5.678
		c2.315,3.649,6.583,5.663,7.677,9.993c2.062,4.108,3.632,9.184,8.375,11.199c2.363,1.015,1.095,4.331,1.284,6.488
		c-4.075,0.158-3.934-5.583-7.994-6.155c-2.585-2.697-3.442-7.027-5.044-10.405c-1.079-4.584-6.361-4.458-7.932-8.803
		c-2.584-2.205-4.678-5.139-6.771-8.058c-4.695-3.458-10.865-5.758-14.831-10.627c-0.903-2.649-4.028-2.015-5.916-3.251
		c-3.57-1.032-7.121-2.792-8.708-6.424c-3.775-2.475-8.55-2.585-12.579-4.583c-3.283-3.188-7.312-4.965-11.61-5.773
		c-6.741,1.522-11.436-2.649-16.876-4.934c-4.791-0.586-8.835-1.396-13.593-2.458c-9.152,2.665-18.178-1.142-26.997-2.538
		c-4.315,0.381-8.835-1.158-13.387-1.253c-4.505-1.539-8.867,0.984-13.878,0.159c-2.174,0.666-4.585,1.094-6.52,2.253l-7.916,0.539
		c-0.222-0.492-1.427-0.27-0.935-1.222c1.951-0.919,3.917-3.981,6.519-2.015c4.077-0.381,7.931-1.015,11.548-2.839
		c6.25-0.587,12.721-0.92,17.13-5.361c3.125-0.889,6.44,0.618,9.597-0.984C205.259,130.772,208.352,132.041,211.936,132.358"/>
	<path fill="#FFFFFF" d="M192.966,145.111c5.98-0.111,10.992,0.968,16.227,2.269c8.137,0.428,15.497,2.506,23.888,2.221
		c4.266,2.49,9.041,2.601,13.292,5.091c2.617,1.253,6.201,0.857,8.057,3.538c5.505,0.603,10.214,3.584,14.958,6.09
		c2.157-0.206,3.775,1.999,6.171,1.809c1.396,2.188,5.725,1.094,5.408,4.679c4.155,6.55,11.752,9.358,18.637,11.912
		c3.077,1.744,5.883,4.678,8.485,6.408c5.964,0.619,5.551,8.026,10.77,10.072c4.918,5.124,7.392,12.372,13.276,16.813l6.218,10.675
		c0.223,0.968,0.428,2.173-0.063,2.871l-4.505-2.49c-0.571-5.996-4.299-10.881-9.738-13.863c-2.332-2.458-3.221-5.583-5.077-8.264
		c-2.791-3.41-7.533-4.964-9.373-8.834c-2.332-2.919-5.408-4.664-8.47-6.409c-1.364-2.918-4.965-2.505-7.075-4.711
		c-5.409-4.203-11.832-6.265-16.003-11.864c-1.681-0.27-1.871-1.951-3.062-2.696c-10.167-5.488-21.556-9.834-32.722-14.148
		c-4.458-3.458-11.183-2.887-16.925-3.251c-3.617,1.348-5.916-2.538-9.754-2.379c-5.52,0.586-10.739-1.444-15.989-2.046
		c-3.584-0.079-6.693-0.634-9.533-1.888c-3.362,0.635-7.883-1.38-10.563,1.19c-5.06,1.332-11.261-0.016-15.624,2.76
		c-4.298-0.809-7.692,1.269-10.833,2.633l-5.028-0.365c-0.207-1.189,1.237-1.634,2.205-2.094c4.108-1.585,8.898-1.713,12.546-4.028
		c9.597-0.983,19.002-4.108,29.027-2.459L192.966,145.111"/>
	<path fill="#FFFFFF" d="M212.111,156.072c0.714,0.492,0.206,1.205-0.047,1.919c-4.568,0.841-8.327-2.347-12.61-2.919
		c-3.585-0.57-6.63-3.758-10.5-1.919c-5.044,0.603-9.867,2.173-15.148,2.76c-4.647,4.441-12.023,2.602-17.13,5.837
		c-5.282,0.841-9.882,3.141-15.386,3.236c-0.492,0-1.443-0.27-1.427-0.73c3.41-2.332,7.994-3.902,12.102-5.488
		c5.504-0.111,10.136-3.601,15.655-4.426c4.109-2.062,9.184-3.378,13.958-3.029c6.741-1.523,15.084-0.381,21.747,1.443
		C206.179,154.025,209.51,154.342,212.111,156.072"/>
	<path fill="#FFFFFF" d="M196.979,158.372c-3.632,1.824-7.408-0.429-11.738-0.032l-0.46-0.492c2.649-0.429,5.79-1.793,8.629-0.285
		C194.616,157.102,196.027,157.61,196.979,158.372"/>
	<path fill="#FFFFFF" d="M251.875,165.588c5.916,3.013,11.357,6.25,17.274,9.009c3.537,2.236,6.329,5.409,9.151,7.867
		c4.489,2.982,10.231,2.871,14.228,6.075c4.251,2.728,6.043,7.804,11.039,9.105c3.982,4.171,8.186,8.803,10.707,13.657
		c3.348,0.555,3.268,4.14,5.378,5.869c2.505,5.805,8.897,8.819,11.15,15.322c2.062,3.648,3.886,7.756,7.661,10.231l0.412,2.886
		l3.839,0.333c0.443,1.207,1.602,2.666,1.585,3.378c-1.41-0.745,6.727,9.867,4.157,11.66c-4.759-1.777-10.707-18.75-15.449-20.049
		c-2.792-3.648-6.758-8.058-8.328-12.88c-3.251-4.632-8.438-7.852-10.469-13.642c-2.347-1.966-3.728-4.393-4.869-7.295
		c-5.885-4.441-10.771-10.294-18.399-12.15c-2.364-1.253-3.251-3.902-4.885-5.615c-0.953-0.983-2.412,0.191-3.585-0.809
		c-3.791-1.745-7.535-4.949-11.088-7.423c-6.392-2.776-11.785-7.693-17.939-10.707c-2.601-1.729-5.979-0.603-8.564-2.347
		c-4.996-1.317-8.995-5.235-14.514-4.394l-3.33-0.792c-8.137-0.429-16.291,0.349-23.285,2.823
		c-6.916-1.348-14.355-0.333-21.508-1.205c-5.283-0.127-10.564,0.951-15.164,3.236c-8.392,0.539-15.418,4.203-23.111,5.472
		c-3.395,2.079-6.82,5.107-11.135,5.013c-2.886,1.126-4.631,4.203-7.74,3.886c1.998-3.775,6.313-3.918,9.025-6.979
		c4.616-3.236,9.485-6.725,15.703-7.058c4.14-2.776,9.628-1.698,14.211-3.268c6.979-1.522,13.768-5.187,21.366-2.871
		c5.012,0.84,9.58-0.016,14.608,0.095c4.108-1.824,8.898-1.475,13.418-0.174c2.396-0.428,4.807-1.094,6.282-2.966
		c5.694,2.284,11.294-1.903,16.496,0.857C241.693,160.814,245.896,165.224,251.875,165.588"/>
	<path fill="#FFFFFF" d="M242.39,172.314c4.284,1.3,6.837,4.711,10.865,6.233c6.187,2.062,11.136,5.282,16.323,8.994
		c3.298,2.22,6.582,5.171,11.134,4.552c5.027,0.126,5.869,5.884,10.134,7.661c5.456,1.792,9.692,5.25,13.673,9.168
		c1.316,5.06,7.265,6.63,7.883,11.675c0.698,0.492,1.174,0.492,1.634,1.237l-1.443,0.19c-5.614-5.155-11.214-11.975-17.828-15.481
		c-4.013-2.49-9.009-4.52-11.784-8.644c-3.045-2.696-7.868-1.618-10.66-4.79c-4.266-1.777-7.058-5.187-10.833-7.916
		c-5.505,0.127-9.009-4.028-13.499-6.28l-15.671-6.107c-1.65-1-2.412,0.666-3.839,0.634c-10.801,0.713-22.19-3.379-31.406,1.681
		c-5.33,2.506-11.991,1.158-17.083,3.918c-0.253,0.476-0.27,1.189-0.745,1.189l-0.952-0.745c-7.186,0.555-13.482,3.521-20.684,4.552
		c-7.011,2.951-13.784,5.916-20.557,9.358c-3.395,1.11-7.471,1.983-8.755,6.027c-5.758,0.333-9.676,4.077-13.356,8.074
		c-1.935,0.666-4.33,0.618-5.995,0.57c2.49-4.235,8.2-3.156,10.929-7.169c1.999-3.792,5.869-5.124,9.501-7.201
		c7.486-2.951,15.005-7.09,22.27-10.992c9.882-2.887,20.921-3.822,31.041-6.948c4.584-1.57,9.406-2.426,13.768-4.948
		c7.201-1.047,15.306,0.571,21.826-1.904c2.903-1.142,6.217,0.381,8.66-1.729C232.43,168.253,237.902,169.586,242.39,172.314"/>
	<path fill="#FFFFFF" d="M192.189,168.539c-4.346,2.062-9.152,2.665-13.974,3.759c-4.837,2.998-11.246,0.459-15.417,4.441
		c-3.347-0.079-6.011,1.539-9.358,0.984c-2.22,3.061-6.281,2.966-9.421,3.854c-5.568,2.981-11.405,6.916-17.67,8.454
		c-2.919,1.855-4.679,5.884-8.47,4.107c0.048-1.903,1.523-3.537,2.982-4.948c4.124-2.3,9.644-2.411,12.832-6.17
		c6.059-2.981,12.8-4.98,18.86-7.946c8.628-0.761,16.13-4.664,24.553-5.917c4.299,0.333,8.852-0.047,12.944-0.904l2.157,0.048
		L192.189,168.539"/>
	<path fill="#FFFFFF" d="M221.897,178.563c1.65,0.745,3.586,0.317,5.267,0.111c3.552,1.269,8.121,0.904,11.674,2.188
		c5.487,1.079,8.946,6.662,13.671,9.152c5.218,2.284,11.2,2.665,15.909,6.123c2.332,2.68,5.901,3.473,9.233,4.267
		c0.443,1.697,0.158,4.076,2.299,4.361c2.872,0.08,5.503,0.127,7.613,2.332c2.332,2.443,6.409,2.3,8.739,5.235
		c3.015,4.14,6.505,8.518,11.485,10.548c0.889,3.379,4.963,3.458,7.312,5.441c4.204,4.156,6.946,9.961,12.134,13.435
		c1.617,2.902,4.442,4.884,6.298,7.803l4.44,4.171c0.174,3.348,3.744,4.395,5.107,7.059l2.253,6.281
		c3.045,3.172,5.346,7.534,3.807,11.816l-0.715-0.015c-1.379-2.919-5.154-5.156-4.599-8.724c-0.127-5.044-5.821-6.836-6.915-11.421
		c-2.364-1.252-2.792-3.647-3.459-5.82c-3.806-1.047-6.359-5.171-7.708-8.788c-3.506-3.681-5.791-8.28-10.533-10.533
		c-3.046-3.188-7.058-5.186-10.104-8.374c-2.063-3.871-7.582-3.284-9.66-6.916c-1.077-5.298-6.581-5.187-9.627-8.359
		c-4.267-2.014-8.026-4.727-12.292-6.503c-2.57-3.171-6.378-3.743-9.201-6.201c-5.742-0.365-10.469-2.871-14.211-7.027
		c-7.075-4.458-16.179-4.425-23.746-8.438c-8.597-1.396-17.701-0.634-26.124,0.84c-3.315-1.03-6.234,0.825-8.661,2.205
		c-8.835-0.92-15.608,2.522-23.539,3.775c-5.06,1.079-9.421,3.378-14.466,4.219c-5.979-0.126-9.215,5.06-14.037,6.868
		c-7.487,2.697-13.134,8.803-20.383,11.738c-2.966,4.25-8.978,5.313-12.182,9.311c-1.982,2.823-4.87,3.711-7.09,6.06
		c0.333-4.062,4.489-7.313,8.121-9.628c7.772-4.377,13.419-10.706,21.397-14.355c5.187-7.074,15.021-7.565,21.826-12.436
		c4.108-1.586,8.661-1.49,13.006-2.823c5.345-3.712,12.531-3.775,19.034-5.551c7.661-0.54,14.006-5.188,21.635-4.062
		c4.568-0.603,9.85-1.205,14.117,0.317L221.897,178.563"/>
	<path fill="#FFFFFF" d="M214.981,187.493l4.807-0.365c6.408,2.299,13.339,2.696,20.017,4.282c4.235,3.205,8.962,5.473,14.197,7.027
		c4.473,3.458,11.705,1.221,15.178,6.329c4.22,4.172,11.12,5.758,15.576,9.692c2.792,3.648,7.535,5.44,9.851,9.564
		c5.647,4.187,12.785,5.789,17.447,11.643c3.3,2.236,4.886,5.853,8.438,8.089c-1.047,3.808,3.506,3.68,4.886,6.09
		c2.744,5.331,6.486,9.486,10.215,14.133c1.539,5.774,7.217,9.009,6.837,15.465c1.887,1.237,2.79,3.171,2.014,5.789l-0.492,0.477
		c-2.839-1.031-1.792-5.313-4.377-7.043c-1.11-4.584-5.346-7.788-6.663-12.356c-3.567-1.523-2.03-6.281-6.074-7.328
		c-1.157-1.459-3.284-2.474-3.473-4.869c-4.362-8.231-13.848-11.801-18.227-19.795c-3.568-1.285-6.376-3.981-8.47-6.662
		c-7.819-3.759-14.133-10.135-21.445-14.846c-4.044-1.285-6.835-4.473-10.642-5.504c-3.553-1.999-6.854-4.473-10.152-6.456
		l-4.79-0.349c-2.824-1.982-6.392-3.267-9.978-3.109c-5.916-3.252-11.832-5.773-19-6.646c-2.65,0.413-4.363,2.285-6.774,2.951
		c-6.201-0.857-12.213,0.206-17.526,1.999c-4.093,1.586-9.105,0.507-13.197,2.094c-2.427,0.904-5.758-0.127-8.184,1.253
		c-3.632,2.316-8.217,3.41-12.546,4.267c-9.66,4.092-19.589,8.645-29.012,12.753c-1.982,2.585-5.82,3.204-7.327,6.297
		c-8.217,3.394-11.294,12.419-19.05,16.321c-3.886,2.538-6.836,6.059-11.183,7.408c-3.696,5.17-8.121,10.341-11.372,16.02
		c1.808-5.473,5.995-10.644,8.978-15.845c2.268-4.489,7.296-4.853,9.787-8.867c4.409-4.441,12.102-6.186,14.64-12.119
		c5.615-4.663,10.024-9.596,16.56-12.546l7.771-4.616c5.282-1.079,9.676-4.806,14.736-6.376c2.918-1.84,6.52-1.998,10.12-2.395
		c7.961-2.697,15.703-6.599,24.791-5.901c6.709-0.333,13.212-1.855,19.668-1.713l1.697-1.158c-1.57-4.346-7.154-1.126-10.247-1.903
		c-1.951,1.142-4.298-0.571-6.233,0.333c-3.902,2.792-9.342,0.27-13.672,1.602l-10.833,2.396c-5.552,2.268-11.342,3.568-16.417,6.09
		l-3.601,0.158c-7.519,4.125-15.244,7.075-21.841,12.674c-5.552,2.506-9.469,6.726-14.577,9.961c-2.696,2.808-5.884,5.6-9.263,7.217
		c-3.22,4.711-8.565,7.931-12.721,11.912l-0.475-0.016c1.792-5.218,8.073-7.471,11.515-11.944c2.268-4.98,7.804-6.28,11.484-10.04
		c6.55-3.68,12.642-8.327,17.765-13.006c9.676-4.092,17.036-11.817,28.059-12.531l18.78-4.599
		c7.185-0.302,13.482-3.046,20.667-3.109C206.401,186.113,210.715,186.208,214.981,187.493"/>
	<path fill="#FFFFFF" d="M242.406,202.958c5.678,3.251,12.88,2.205,18.051,6.392c5.218,1.808,8.961,6.439,14.179,8.47l0.698,0.73
		c-0.236,0-0.475,0-0.491,0.238c0.951,0.492,2.634,0.539,4.045,1.285c1.855,2.68,5.441,3.235,6.804,5.9
		c7.55,5.44,16.035,11.135,22.096,18.209c1.887,1,2.791,3.664,4.678,4.664c4.728,2.981,8.438,7.612,10.502,12.434
		c6.883,2.317,6.931,10.691,11.642,14.64c1.364,2.666,1.301,5.774,2.442,8.439l4.171,5.361c0.175,3.584,2.254,6.758,4.109,9.422
		c-0.049,1.682-0.08,3.347-1.999,3.315c-1.903-0.285-1.365-2.919-2.775-4.141c-2.839-1.506-1.809-5.076-2.936-7.724
		c-1.379-2.903-3.964-4.647-5.583-7.55c-0.111-5.266-4.837-8.248-5.916-13.07c-0.19-2.396-3.299-2.936-3.474-5.346
		c-2.362-1.729-2.014-6.265-5.361-6.821c-1.38-2.427-3.965-4.155-6.329-5.409c-3.235-5.583-9.104-10.738-14.782-13.973
		c-7.898-10.484-20.239-14.593-30.104-22.952c-5.457-2.284-11.167-3.854-16.1-7.788c-4.537-1.063-9.549-1.649-13.324-4.124
		c-6.899-1.84-14.037-3.918-21.952-2.903c-5.044,0.603-9.866,2.173-14.688,3.251c-5.742-0.127-11.928-1.459-17.479,0.096
		c-7.994,4.362-17.591,4.869-25.585,9.469c-7.756,4.14-16.433,6.329-23.713,10.723c-8.549,7.931-18.034,14.179-25.886,22.855
		c-5.107,3.237-10.231,7.439-13.229,12.626c-5.123,4.204-6.963,11.579-11.389,16.734c-2.712,3.791-3.521,8.073-6.487,11.832
		c1.126-7.39,6.519-13.022,8.835-20.144c2.744-4.964,5.234-8.977,8.914-12.976c1.458-0.919,2.22-3.044,3.917-4.218
		c3.156-1.839,3.728-5.885,7.329-6.298c12.641-7.851,20.112-21.08,33.673-27.726c8.438-2.68,15.973-7.772,24.871-9.723
		c1.967-2.109,5.298-1.079,7.486-2.696c7.202-0.556,12.341-5.948,20.462-4.568c4.346-1.586,9.088,0.444,13.641-0.158l9.152-2.443
		c8.17-1.015,15.513,2.268,23.396,3.41L242.406,202.958"/>
	<path fill="#FFFFFF" d="M238.695,208.383c7.375,2.315,14.989,4.409,20.858,9.088c1.665,0.523,3.315,1.523,4.98,2.284
		c4.553,0.095,6.6,4.457,10.405,5.964c4.728,2.03,8.486,5.711,12.72,8.676c4.886,6.345,11.469,11.278,16.371,17.13
		c2.141,1,3.266,3.664,4.916,5.14c5.614,5.631,9.549,11.23,13.735,17.305c0.905,2.174,1.317,4.822,3.442,6.298
		c0.396,3.6,4.188,5.36,4.822,8.977c1.157,1.697,3.268,3.664,4.663,5.361c-0.777,2.855,1.332,5.06,2.729,6.296
		c1.094,4.569,4.14,7.757,4.029,12.77c-0.255,0.475-1.222,0.698-1.682,0.206c-1.619-2.665-3.713-5.107-3.395-8.691
		c-0.46-1.207-1.396-1.952-2.586-2.222c-4.488-2.728-3.648-7.979-6.678-11.404c-0.381-4.313-4.394-6.805-5.742-10.896
		c-2.379-0.523-1.125-3.379-2.521-5.092c-1.856-2.188-4.949-3.695-6.329-6.122c-2.634-0.302-2.079-3.395-2.761-5.093
		c-3.711-4.869-9.12-9.057-11.88-14.386c-4.458-3.457-8.931-7.154-12.42-11.531c-3.743-3.918-8.993-4.997-11.991-9.374
		c-4.743-2.49-8.945-6.662-13.942-8.454c-4.933-3.95-11.15-4.568-16.845-6.614c-6.979,1.284-11.912-2.427-17.385-4.458
		c-4.504-1.539-7.915,1.015-12.451,0.428c-9.549-0.936-18.923,0.54-28.043,1.285c-2.919,2.094-6.456,0.096-9.612,1.459
		c-2.396,0.667-4.838,2.522-7.011,3.665c-7.407-1.364-9.977,6.725-16.892,5.599c-4.807,0.619-6.836,5.837-11.183,7.169
		c-2.411,0.92-3.188,3.283-5.6,4.188c-7.28,4.616-15.004,7.566-21.619,13.642c-5.092,2.981-8.09,8.66-12.499,12.641
		c-2.458,3.046-6.139,6.551-9.533,8.882c-0.206-1.443,0.809-3.822,2.506-4.742c4.156-3.982,9.01-6.741,11.991-11.453
		c6.123-6.09,11.959-10.5,18.558-16.337c5.599-3.95,10.723-7.899,16.544-11.357c4.567-0.856,8.01-5.091,12.578-5.932
		c5.346-3.474,11.833-4.283,16.924-7.281c5.043-0.365,9.85-1.459,14.672-2.775c2.633,0.285,5.25,0.349,7.439-0.793
		c7.391,1.126,13.435-1.618,20.16-2.411C222.008,205.131,230.336,207.717,238.695,208.383"/>
	<path fill="#FFFFFF" d="M211.508,214.235c10.056,0.223,21.287,0.714,28.551,7.82c6.836,4.473,14.926,6.805,21,13.166
		c2.601,2.221,6.17,2.776,9.754,3.347l6.361,4.203c4.092-1.349,5.694,2.522,8.279,4.505c6.425,1.57,11.357,5.995,13.371,12.038
		c3.728,4.854,6.234,10.421,11.658,13.657c5.615,6.123,9.485,14.593,14.847,21.176c0.587,5.282,4.346,8.708,7.614,12.61
		c1.332,4.821,5.06,8.738,7.835,12.879c0.222,1.19-1.205,1.157-1.681,0.682c-6.346-4.949-10.738-12.229-14.657-18.542
		c1.238-1.633-0.919-1.935-1.617-2.903c-2.062-3.631-3.41-7.501-5.251-11.372c-3.521-2.95-3.869-8.708-8.611-10.722
		c-5.791-8.281-12.056-17.274-20.034-24.157c-2.03-5.553-8.01-5.933-13.021-6.996c-3.046-2.712-6.616-3.982-10.405-5.028
		c-6.361-4.695-13.213-8.93-20.827-11.246c-2.347-1.729-5.187-2.998-6.329-5.884c-4.98-1.793-8.215-6.9-14.211-6.313
		c-4.537-0.825-8.169,1.015-12.705,0.666c-3.331-1.031-6.234,0.333-9.343,0.27c-3.806-0.809-7.629-1.38-11.689-1.459
		c-3.68,3.505-8.486,4.108-13.054,4.727l-9.882,3.601c-5.726-1.316-8.232,3.648-12.578,5.219c-2.712,3.299-7.233,2.712-10.643,5.266
		c-8.455,3.172-15.783,9.231-23.999,13.103c-4.679,5.647-10.754,9.087-14.704,14.751c-7.629,9.167-18.542,15.147-23.348,26.281
		c-6.582,5.124-6.551,14.704-10.786,21.541c-0.523,2.38-0.587,5.028-1.602,7.391c0.048-2.155,1.095-5.487,1.396-8.343
		c0.523-2.396,1.539-4.758,2.554-7.137c1.031-3.57-0.063-7.899,2.872-10.707c5.837-3.934,8.374-10.58,11.864-16.242
		c5.631-5.616,11.722-10.516,17.606-16.132c2.458-3.045,3.521-7.819,8.105-9.151l5.33-2.506c2.49-4.251,7.059-5.583,10.944-8.121
		c3.156-1.602,6.773-2.966,9.453-5.06c2.443-1.617,5.568-2.03,7.058-5.107c2.649-0.651,4.854-2.522,7.043-4.14l4.807-0.856
		c2.474-3.537,6.344-4.885,10.864-3.823c1.713-1.871,4.584-1.332,6.52-2.252c3.87-2.3,8.898-2.189,12.784-4.251
		c5.282-1.316,10.517,0.238,16.036,0.127L211.508,214.235"/>
	<path fill="#FFFFFF" d="M246.594,219.105c4.537,0.571,8.566,2.347,11.849,5.297c1.681-0.206,2.11,2.189,3.775,2.474l5.489,1.079
		c3.917,6.075,10.833,7.661,15.75,12.324l-0.016,0.477c-3.093-0.064-4.489-2.729-7.359-2.792
		c-6.345-4.695-13.214-7.725-19.828-12.42c-4.046-0.809-7.359-2.554-10.898-4.806c-1.919-0.032-3.568-1.27-3.997-2.951
		C243.533,217.107,244.674,219.057,246.594,219.105"/>
	<path fill="#FFFFFF" d="M234.491,225.053c2.554,3.648,6.583,5.409,9.867,8.122l4.521,1.3c1.872,1.713,3.98,3.442,6.63,3.505
		c4.457,3.68,10.865,6.218,13.133,11.786c6.249,9.231,16.922,13.783,22.205,23.237c3.982,4.171,7.455,9.517,9.962,14.83
		c2.332,2.696,5.899,4.203,7.248,7.599c4.362,8.708,8.946,17.67,15.006,24.996c1.507,7.218,8.58,12.15,8.39,19.828
		c1.412,1.697,0.159,4.061,0.604,5.996c-2.078-3.648-4.854-8.011-7.154-11.896c-0.65-3.616-1.507-7.455-4.329-9.914
		c-2.016-6.043-5.234-12.087-9.185-17.209c-2.949-7.012-6.646-13.324-12.039-18.464c-5.773-8.993-13.261-17.066-20.254-25.362
		c-5.187-2.982-7.217-8.55-12.673-11.056c-0.587-5.52-6.821-5.423-9.358-9.547c-3.235-4.632-8.962-5.949-13.688-8.217
		c-5.219-2.506-9.422-7.153-15.132-8.486c-1.634-2.426-4.553-0.333-6.662-1.586l-10.517-1.189
		c-3.854,1.348-8.153,0.523-12.245,1.396c-6.535,3.203-14.672,3.251-21.667,5.25c-1.904-0.523-3.839,0.396-5.06,1.332
		c-4.077,0.143-7.011,3.426-11.325,3.569c-2.919,1.84-5.139,4.901-8.042,6.043c-0.778,2.363-3.395,1.586-5.076,2.268
		c-6.344,4.885-10.326,11.5-17.78,13.482c1.031-3.569,5.107-3.711,7.089-6.298c4.219-6.852,13.8-7.359,18.019-13.958
		c4.584-1.333,5.473-8.486,11.405-6.439c3.125-0.651,6.265-1.539,8.946-3.632c2.617,0.301,6.423,1.348,8.629-0.762
		c9.881-2.411,20.414-2.649,30.279-5.06l7.661-0.301C226.179,221.754,231.208,221.865,234.491,225.053"/>
	<path fill="#FFFFFF" d="M227.417,230.637c3.077,1.507,7.614,1.84,9.231,4.996c-4.599,1.809-5.9-4.203-10.453-4.06
		c-4.551,0.364-9.581,0.492-13.609-1.507c-5.266,0.111-11.468-1.459-14.894,2.522c9.089,0.206,16.924,3.013,25.522,3.933
		c7.168,0.889,14.053,3.188,21.207,4.077c4.299,1.046,6.329,6.36,11.356,6.471c4.869,6.583,13.213,8.201,17.59,15.497
		c-5.027,0.365-7.279-6.154-12.023-7.708c-1.158-2.173-3.521-2.934-5.647-4.425c-12.038-7.692-26.076-11.611-40.875-13.387
		c-3.077-1.745-7.423-0.158-10.992-0.967c-3.584-0.317-6.916-1.348-10.484-2.142l-12.483,1.38
		c-3.395,2.094-7.946,1.983-11.579,3.569c-5.124,4.442-11.643,6.916-17.004,11.341c-11.436,7.883-24.712,12.61-34.975,22.19
		c-6.329,4.171-9.818,10.547-15.434,14.735c-4.108,1.824-4.457,6.613-7.614,8.93c-4.473,7.075-9.167,13.911-13.419,21.478
		c-2.553,7.358-2.03,15.528-5.535,22.143c-2.046,6.169-0.302,13.402-1.396,19.842c-1.586,6.187,0.207,11.976,0.777,17.972
		c-0.428,8.122,2.521,15.385,4.267,23.08c2.76,5.089,3.823,11.338,7.772,16.209l-0.032,1.919c-2.855-1.269-3.49-5.107-5.092-7.771
		c-4.124-8.725-4.837-18.779-8.47-27.728c0.539-2.87-1.333-4.584-2.015-6.756c0.634-6.678,0.809-13.863,0.476-20.572
		c1.522-3.554,0.666-8.359,0.269-12.197c1.047-4.045,2.824-8.074,4.108-11.882c-1.285-6.979,2.205-12.641,4.727-18.573
		c4.394-3.966,4.79-10.421,8.946-14.402c1.507-3.076,3.728-5.646,5.457-8.485c1.824-6.187,9.072-9.137,12.546-14.561
		c4.41-4.204,9.279-7.693,14.354-10.453c2.681-2.094,5.394-5.14,8.994-6.012c6.979-1.761,13.324-6.883,18.462-11.309
		c6.535-2.966,12.119-6.678,18.432-10.596c4.092-1.11,7.946-2.22,11.357-4.298c6.25-1.285,12.943-1.142,18.288-4.362
		c5.979,0.127,11.547-2.617,17.479-0.333C218.805,229.954,223.373,229.336,227.417,230.637"/>
	<path fill="#FFFFFF" d="M289.722,259.584c1.872,1.712,1.077,5.758,4.393,6.55l6.329,6.376c1.649,1.476,3.268,3.426,3.458,5.821
		c2.094,2.443,5.631,4.917,7.249,7.345c1.363,3.394,3.442,6.788,4.567,10.404l3.696,5.821c3.521,2.728,4.837,7.773,7.899,10.485
		c1.554,5.536,7.962,7.835,8.55,13.593l1.521,6.503c-0.491,0.937-1.443,0.444-2.157,0.191c-4.885-6.583-7.819-13.832-12.705-20.398
		c0.08-3.839-3.695-5.838-5.313-8.74c-1.047-6.249-6.203-10.913-8.963-16.241c-3.949-5.362-9.342-10.041-12.324-15.847
		c-6.788-7.105-12.117-14.877-20.128-20.571c-0.935-0.73-2.347-1.968-1.84-3.157C280.854,249.321,284.313,255.38,289.722,259.584"/>
	<path fill="#FFFFFF" d="M224.356,249.48c5.758-0.587,8.771,4.028,13.513,5.567c8.074,2.823,14.197,7.978,21.271,12.214
		c6.868,3.266,13.451,8.691,17.86,14.766l1.682,0.286c7.741,6.869,11.579,16.783,18.842,23.65
		c3.713,5.583,2.808,13.705,3.363,20.668c2.95,6.994,3.727,15.164,6.44,22.396c4.107,8.724,5.566,18.573,8.47,27.726
		c-0.017,0.729-0.302,2.634-1.714,1.65c-3.283-3.442-2.188-9.152-4.98-12.801c-3.029-3.426-2.442-8.677-3.775-12.784
		c-4.726-3.221-1.49-8.645-3.536-13.007c0.777-2.854-3.252-4.395-2-7.233c-2.094-2.664-0.11-5.741-1.235-8.644
		c0.57-4.299-1.017-8.153-1.158-12.467c-3.76-3.204-4.124-7.995-7.646-10.945c-0.65-2.887-3.251-4.631-4.631-7.058
		c-1.888-1.237-2.299-4.109-4.901-5.378c-1.57-5.06-8.026-5.44-10.547-10.294c-4.268-1.776-6.536-7.09-11.563-7.201
		c-5.377-5.63-12.753-7.47-19.113-11.927c-1.665-1-4.299-0.572-6.218-0.381c-1.919-0.286-3.57-1.523-5.218-2.269
		c0.967-0.459,3.33,0.793,4.314-0.618c-1.159-1.459-3.046-2.237-5.441-2.285c-3.346-0.555-6.408-2.775-9.738-3.568
		c-8.597-1.16-16.544,1.062-24.458,1.363c0.507-1.189,2.426-1.142,3.41-2.316c2.634-0.19,5.06-1.57,7.709-2.221
		C210.271,247.481,218.186,246.704,224.356,249.48"/>
	<path fill="#FFFFFF" d="M214.871,255.968c0.904,2.173,3.315,1.269,4.981,2.268c4.743,1.776,9.992,2.617,15.497,2.982
		c4.949,3.219,10.135,6.692,15.591,8.977l5.664,3.235c4.694,4.647,10.849,7.661,14.069,13.721
		c8.803,12.419,16.384,26.472,22.777,40.256c1.3,6.266,3.552,12.056,4.377,18.305c2.237,6.758,3.996,13.736,5.028,21.176
		c-0.11,5.027,0,10.531,0.587,15.813c-2.348-1.729-3.236-4.614-3.649-7.501c1.032-3.569,1.872-8.565-0.697-11.754
		c-1.458-9.835-2.902-19.922-6.994-28.884c-0.92-12.467-8.597-22.222-13.133-33.325l-6.298-7.328
		c-2.014-6.281-7.454-9.264-11.657-14.164c-2.633,0.427-3.299-2.221-4.219-3.918c-2.603-1.491-6.203-1.094-7.313-4.473
		c-2.379-0.54-4.551-0.349-6.678-1.349c-4.218-4.171-10.167-5.742-15.607-8.263c-3.569-0.794-7.883-0.889-11.484-0.73
		c-1.872-1.712-6.218-0.142-5.9-3.728c-2.364-1.252-5.473-1.554-8.122-1.142c-9.818,0.967-19.208,2.919-28.598,5.091
		c-5.108,3.728-11.579,3.57-16.449,7.773c-4.473,6.836-12.689,10.484-18.114,17.305c-6.329,4.409-8.406,12.022-14.497,16.194
		c-3.268,6.868-8.661,12.721-10.754,20.334c-2.459,2.823-4.917,5.885-5.726,9.691c0.111,5.996-3.585,10.215-4.188,15.941
		c-1.76,3.315-4.203,5.899-4.298,9.722c-0.857,5.965,2.855,11.785,0.809,17.258c1.602,3.379,1.999,7.218,2.633,10.835
		c-1.237,12.181,7.931,19.811,9.105,31.087c0.634,3.839,4.394,6.568,4.298,10.88c3.664,7.488,8.771,14.784,15.83,19.749
		c5.203,3.221,9.676,6.441,14.625,10.135c7.582,3.522,13.894,9.898,21.714,13.675c2.157-0.446,2.839,1.251,3.521,2.694v0.494
		c-5.473-1.57-11.182-3.363-14.91-7.758c-9.263-3.569-15.56-10.643-24.078-15.147c-2.554-3.409-7.55-4.729-9.612-8.851
		c-3.76-3.188-5.33-7.79-6.662-12.355c-4.156-7.281-7.804-14.784-11.23-22.287c-4.203-4.395-2.602-11.784-4.632-17.575
		c-2.062-3.868-0.761-8.645-1.618-12.958c1.079-5.013-1.475-8.898-0.873-14.147c0.523-1.903-0.143-4.553-0.333-6.473
		c0.586-4.789,1.649-9.548,3.426-13.814c0.364-5.504,2.156-10.723,5.361-14.959c1.745-2.601,1.094-5.963,4.251-7.803
		c5.503-10.405,12.896-19.335,18.875-29.74c4.663-5.394,10.532-11.008,14.498-16.908c5.773-0.825,8.787-6.741,13.625-9.264
		c4.092-1.111,8.423-1.967,11.373-5.25c5.583-3.935,13.229-3.046,19.51-5.06c4.33-1.11,8.612-0.287,13.165-0.429
		c2.411-0.429,4.6-1.808,7.202-0.792C210.588,254.667,212.714,255.92,214.871,255.968"/>
	<path fill="#FFFFFF" d="M222.104,264.263c10.453,3.839,20.398,8.852,29.328,15.513c1.887,1.476,3.775,2.728,5.916,3.014
		c3.299,2.697,5.345,7.059,9.627,8.597c1.174,0.983,0.429,2.634,1.349,3.855c1.379,2.902,4.917,4.663,6.281,7.804
		c4.124,8.47,8.47,17.432,12.356,25.664c0.317,6.471,4.045,11.579,3.902,18.033c2.554,3.411,1.476,8.187,2.839,11.802
		c2.063,4.124,0.73,9.597,3.284,13.482c-2.761,5.441,2.172,9.865,3.489,14.687c1.11,4.093,3.426,7.725,3.092,12.039
		c-2.887,0.396-4.487-2.744-5.646-4.679c-0.999-8.644-4.901-15.908-5.425-24.537c-2.507-5.821,0.047-12.705-1.983-18.731
		c-1.57-4.109-5.076-8.012-4.964-13.039c-3.616-9.184-5.536-19.271-10.39-27.52c-1.602-2.681-3.949-5.123-4.836-8.01
		c-4.68-4.901-7.17-10.945-12.357-14.895c-5.424-3.711-10.833-7.423-16.004-11.61c-2.601-1.967-5.663-3.966-9.485-4.284l-8.502-4.98
		c-5.503-0.602-12.213-0.047-16.923-3.268c-3.331-1.269-6.678-1.109-9.818,0.033c-1.714,1.634-3.839-0.095-5.743-0.144
		c-3.141,0.889-6.265,1.777-8.486,4.124c-2.141-0.047-3.838,0.381-5.726-0.618c-6.741,1.539-10.928,7.185-17.431,8.708
		c-2.666,1.379-3.918,3.982-5.409,6.345c-5.33,2.982-9.263,7.455-13.435,11.896c-3.696,4.474-8.565,8.185-11.563,13.388
		c-1.459,1.158-2.935,2.807-2.982,4.964c-3.949,5.171-6.487,11.342-9.723,16.767c-2.237,4.028-2.11,8.819-3.649,13.085
		c-4.393,3.982-3.124,11.438-7.518,15.164c0.873,3.616,1.745,6.979,0.476,10.548c0.841,5.282,0.73,10.31,2.538,14.896
		c-1.586,6.424,1.396,12.243,1.729,18.478c0.222,0.952,0.92,1.935,1.872,1.712c1.221-0.458,1.253-2.362,1.285-3.806
		c0.111-4.536-1.966-8.423-1.364-13.195c2.792-7.361,2.981-15.959,4.14-24.317c1.047-3.807,1.379-8.597,0.999-12.674
		c-0.238-0.238-0.222-0.713-0.698-0.967c-4.631,4.204-2.886,11.657-5.409,17.114c1.126,3.141,0.333,6.472-0.46,9.327
		c-2.363-1.254-0.841-4.569-0.555-6.726c0.397-6.693,1.015-13.609,3.315-19.796c4.87-3.474,5.266-9.929,7.059-15.401
		c1.491-2.602,2.998-5.424,3.553-8.771c3.949-5.186,6.233-11.356,10.183-16.051c5.14-5.393,9.818-10.549,14.482-16.433
		c4.631-2.999,8.327-7.948,13.165-10.469c8.47-3.886,14.862-10.913,24.696-11.659c4.806-1.078,9.39-2.648,14.656-2.538v0.238
		c-6.773,3.204-14.244,4.949-21.46,6.947c-2.935,2.317-6.329,3.918-9.945,5.267c-3.411,2.332-6.599,6.074-10.929,6.947
		c-4.409,4.441-10.944,7.884-14.672,13.784c-6.169,7.755-13.038,14.798-17.066,24.268c-2.03,4.268-3.094,9.279-5.346,13.529
		c0.111,5.52-1.935,11.214-1.348,16.973c-1.348,7.392-4.394,14.751-4.584,22.873c-0.333,4.551-1.618,8.342-1.015,13.147
		c-0.873,6.678-0.793,14.101,2.189,19.923c1.697,9.375,4.346,19.241,11.134,26.107c3.109,0.302,2.776,4.126,5.632,5.155
		c1.697-1.396,1.047-4.282,0.618-6.217c-1.3-6.249-4.773-11.356-5.345-17.829c-3.917-6.551-3.981-14.687-4.996-22.618
		c2.015-4.027,3.538-8.295,2.934-13.34c-0.935-0.983,0.27-1.19,0.063-2.396c0.396-7.168,2.713-14.053,3.125-21.476
		c0.126-5.504,1.665-10.5,3.441-15.243c-1.126-2.903,1.317-4.997,3.03-6.631l3.981-6.138c-1.317,4.521-2.617,9.278-3.681,13.799
		c-2.76,5.695-4.583,12.103-5.203,18.559c-1.569,6.187-1.49,13.134-2.839,19.573c0.349,5.503-1.443,10.977-1.57,16.717
		c-0.682,8.36,3.236,15.623,4.489,23.318c2.712,7.485,3.965,15.656,6.916,22.904c2.125,1,3.029,3.425,5.409,3.966
		c0.919,1.443,0.872,3.362,2.299,4.359l-0.254,0.461c-4.885-6.092-13.466-7.961-17.384-14.751c-3.538-2.476-6.075-6.361-8.883-9.295
		c-2.046-4.838-2.633-10.61-5.646-15.228c1.094-6.187-6.266-8.756-6.36-14.736c0.032-1.68-1.396-2.425-1.825-4.122
		c0.81-3.806,0.92-8.837-1.412-11.992c-0.174-2.648,0.873-6.202-1.729-7.947c0.27-1.427,1.015-2.839,1.999-3.774
		c-1.349-3.632-0.095-6.471-1.444-9.85c-0.666-2.411,1.047-4.536,2.062-6.661c-0.555-7.201,4.093-12.119,5.203-18.559
		c0.81-3.569,1.142-7.868,4.537-9.708c2.522-6.17,6.471-11.119,8.533-17.526c3.934-4.458,8.566-8.184,11.326-13.388
		c3.41-3.268,6.138-6.805,9.089-10.579c3.109,0.317,4.139-2.998,6.09-4.632c2.649-0.903,4.394-3.506,6.107-5.14
		c1.919-0.427,3.41-2.554,5.329-3.219c1.951-0.919,3.664-3.268,6.298-2.744c2.68-2.332,6.519-2.474,8.961-5.06
		c3.378-1.11,7.455-1.031,10.833-2.632c1.682,0.285,4.315,0.349,5.536-1.063c2.648-0.174,5.488,0.602,7.915-0.54
		C209.034,259.901,214.157,266.246,222.104,264.263"/>
	<path fill="#FFFFFF" d="M222.944,269.544c1.889,1,4.013,2.016,5.664,3.728c-1,1.412-2.872-0.302-4.298-0.333
		c-4.743-2.268-9.994-2.872-15.497-3.235c-1.206,0.222-2.871,0.428-3.617,1.363c-0.015,0.714-0.032,1.19,0.444,1.682l11.468,0.745
		c8.264,5.203,20.065,2.364,27.314,9.469c8.263,5.218,16.464,12.832,21.54,21.556c1.823,4.124,6.296,7.328,7.628,11.912
		c2.666,8.915,6.298,17.622,9.216,26.299c1.587,3.87,2.221,7.962,4.536,11.356c0,10.532-0.237,21.063,4.346,30.026
		c1.57,4.345,0.729,9.833,4.728,12.799c0.411,2.887,2.03,5.791,1.236,8.645c-2.617-0.302-3.997-2.727-5.631-4.438
		c-0.602-5.285-3.601-10.138-4.933-15.198c-0.063-7.422-3.759-13.26-6.249-19.541l-2.761-15.607
		c-0.222-0.729,0.492-0.714,0.745-1.188c2.143,0.776,0.382,3.837,2.269,5.075c1.84,3.886-0.222,9.817,3.077,12.768
		c2.379,0.049,1.73-2.839,2.016-4.266c-1.745-7.946-3.237-16.116-6.663-23.364c-0.142-4.093-5.171-4.188-4.837-8.503l-0.825-5.758
		c-3.949-5.122-4.52-11.832-9.2-16.732c-3.743-3.918-4.33-9.438-8.312-13.595c-0.127-4.551-5.869-4.916-7.708-8.31
		c-6.218-0.144-8.691-7.376-15.196-5.14c-1.681,0.206-2.584-1.967-4.011-2.474c-6.472,0.333-11.421-3.379-17.385-3.999
		c-1.428-0.745-2.824-2.695-4.759-1.538c-1.951,1.396-5.265-0.127-7.455,1.031c-10.326,1.681-19.748,5.774-28.25,11.087
		c-1.522,3.315-5.346,3.221-7.788,5.33c-4.647,3.965-10.929,6.455-14.64,11.88c-8.026,6.027-8.994,16.543-13.72,24.824
		c-3.649,2.553-4.949,6.819-7.186,10.134l-0.746,12.421c-2.696,2.094-0.634,6.455-1.411,8.835
		c0.349,5.995-3.363,10.928-1.809,16.956c-2.236,3.061-1.618,7.628-0.729,10.99c-3.76,7.346-1.111,16.735-0.317,24.649
		c3.727,4.395,2.617,11.087,6.107,15.467l1.57,4.584c-1.206,0.204-2.125-1.477-2.823-2.222c-2.824-2.457-1.047-6.964-4.347-8.709
		c-1.57-4.82-2.648-9.644-4.948-14.006c-0.333-6.946-1.127-14.147,0.698-20.571l0.079-13.879c3.981-6.614,2.506-15.751,4.837-22.872
		c-0.317-7.439,3.632-12.61,5.203-19.033c3.743-6.631,6.075-13.753,10.516-19.875c4.251-8.042,12.737-13.118,18.653-19.922
		c3.093,0.776,2.696-2.824,5.567-2.761c4.14-3.014,8.962-4.822,12.88-8.788c2.919-2.094,7.217-1.76,9.675-4.584
		c8.661-1.474,15.989-8.248,25.521-6.122C215.759,269.386,219.328,270.671,222.944,269.544"/>
	<path fill="#FFFFFF" d="M220.501,281.711c7.932-0.778,13.07,4.601,19.732,6.916c5.107,6.566,12.212,9.849,16.845,17.13
		c4.44,4.886,5.963,11.15,10.167,16.274c3.219,5.107,2.601,11.547,6.09,16.178c2.458,7.472-0.127,16.036,2.823,23.286
		c1.094,4.567,4.093,9.437,1.824,14.402c-0.096,4.551,3.664,7.278,5.012,11.371c1.078,5.282,4.584,8.725,4.933,14.468
		c2.078,3.646,5.837,6.598,5.012,11.61c-0.491,0.713-1.443,0.204-1.919-0.287c-5.155-4.664-6.424-12.116-9.151-18.397
		c1.3-4.521-4.902-5.616-4.806-9.677c1.094-6.456-4.094-9.675-5.647-15.211c-3.822-10.865-4.505-22.857-9.057-33.484
		c-0.144-3.601-1.745-7.471-4.553-9.913c-1.856-3.172-1.745-7.471-4.33-10.167c-8.408-9.279-15.371-18.781-26.489-24.301
		c-10.2-4.061-21.778-0.967-31.867,0.952c-7.725,2.934-15.703,5.869-21.333,11.483c-1.982,3.315-6.313,3.696-8.756,6.266
		c-5.821,3.22-10.722,8.375-12.308,15.053c-3.189,2.791-4.473,6.599-7.169,9.644c-0.302,2.634-2.268,4.743-2.792,7.36
		c-1.809,5.709-1.253,12.42-4.949,17.368c-1.317,4.759-0.713,10.278-1.063,15.053c-1.237,2.125-0.365,5.504-1.38,7.866
		c-4.107,2.301-1.84,7.376-2.887,11.436c-1.872,8.328,2.3,14.896,3.807,22.112c3.379,8.931,4.378,18.527,11.643,25.395
		c1.094,3.854,5.361,6.106,5.25,10.658c2.141,0.763,3.045,3.428,5.171,4.427c10.374,6.692,21.714,13.657,32.611,18.938l-3.362,0.157
		c-11.88-3.854-23.237-10.103-32.611-18.463c-2.396-0.283-3.077-1.981-3.744-3.664c-1.491-8.422-9.279-13.624-12.467-20.872
		c-1.285-6.013-4.283-11.356-5.107-17.591c-1.792-5.314-4.061-10.865-3.204-16.845c0.824-4.521,0.222-9.563,1.047-14.086
		c1.745-3.552,2.315-7.851,3.378-11.911l0.667-8.597c2.442-12.643,4.187-25.76,11.357-36.371c4.901-4.918,5.329-13.276,12.102-16.48
		c4.647-3.965,8.137-9.866,12.752-13.117l1.205,0.016c-1.269,3.094-4.869,3.49-6.138,6.82c-0.032,0.714,0.682,1.444,1.396,1.459
		c5.091-2.759,9.025-7.216,13.418-10.705c5.06-2.285,9.913-4.808,15.688-5.631c1.951-1.634,5.028-0.127,6.756-2.714
		c-0.682-1.697-2.823-1.507-4.267-1.537c-4.092,0.872-7.962,2.457-12.055,3.314c-3.141,1.602-6.789,3.917-10.167,5.282l-0.238-0.255
		c5.187-6.583,13.609-8.787,21.556-10.754c4.092-1.11,6.63,3.489,10.722,2.396c2.839,1.269,6.678,1.11,10.008,1.665
		c4.283,1.285,8.803,2.824,12.326,5.298c2.823,2.697,6.883,2.792,8.96,6.439c4.933,4.172,7.661,10.469,13.34,13.704
		c6.423,11.881,13.117,23.048,14.244,36.958c0.903,2.174,1.316,4.822,1.507,7.217c1.554,4.822,2.41,9.628,5.423,13.769
		c1.443-0.206,1.016-1.887,1.269-3.094c-2.474-6.756-4.711-13.752-4.298-21.396c-2.505-5.568-3.315-12.056-5.583-17.844
		c-2.538-4.362-4.346-8.963-6.629-13.324c0.063-3.347-3.506-4.141-4.157-7.027c-4.949-3.711-9.375-9.072-14.069-13.022
		c-5.313-8.724-16.02-11.61-25.822-12.07c-3.347-0.556-6.678-0.873-9.264-2.839c-5.726-1.332-10.563,0.951-16.322,1.062
		c-4.156,4.458-10.421,5.757-15.513,8.978c-2.474,3.061-6.788,3.917-9.738,6.726c-2.236,4.267-6.63,7.28-8.867,11.531
		c-5.583,3.235-7.899,10.12-12.086,14.815l-1.698,0.919c-0.586-5.281,4.267-8.28,6.758-12.308c0.539-3.094,3.458-4.934,3.775-8.043
		c5.79-2.506,10.214-7.438,14.862-11.404l9.216-5.059c5.869-5.362,13.355-8.788,21.524-9.566
		C206.21,278.507,214.125,278.443,220.501,281.711"/>
	<path fill="#FFFFFF" d="M132.834,284.026c-3.171,2.57-4.457,6.123-8.073,7.725c-1.745,2.823-3.267,6.853-6.408,8.231
		c-0.634-3.615,3.473-5.678,4.743-8.993c2.475-3.536,6.392-7.042,10.262-8.627L132.834,284.026"/>
	<path fill="#FFFFFF" d="M284.756,299.206c-0.825,4.537,4.426,5.36,5.298,9.216c1.825,3.869,5.329,7.788,4.98,12.563
		c-2.125-1.729-3.489-4.379-4.155-7.043c-2.95-7.232-7.852-12.626-11.515-19.653c-0.936-1.459-3.299-2.457-2.537-4.836
		C279.887,291.909,282.679,295.812,284.756,299.206"/>
	<path fill="#FFFFFF" d="M229.702,298.683c4.949,3.695,9.611,8.835,14.069,13.245c0.443,1.443,2.585,2.204,2.775,3.886
		c4.949,3.711,6.472,10.198,9.96,14.831c0.143,4.313,2.935,7.725,5.013,11.372c1.57,4.584,2.412,9.39,2.539,14.656
		c2.474,6.756,5.678,13.292,5.995,20.969c1.793,4.821,2.395,10.579,6.852,14.036c0.983,9.837,6.79,17.387,9.707,26.078l0.429,2.174
		c-4.758-1.319-4.869-6.823-7.422-10.232c-3.696-6.314-5.932-13.054-9.136-19.604c-2.094-2.442-0.571-6.471-1.697-9.611
		c-1.285-6.489-2.585-12.992-4.584-19.257c-1.809-5.313-3.838-10.39-3.711-16.369c-5.979-10.184-10.04-21.777-18.225-30.327
		c-4.696-3.474-6.234-9.962-11.674-12.959c-3.3-1.999-6.361-4.219-10.168-5.266c-6.725,0.571-14.339-1.285-20.858,0.967
		c-8.676,2.919-17.146,6.789-22.825,14.322c-1.967,2.11-4.377,3.016-5.869,5.616c-6.916,9.185-8.375,20.637-13.863,30.565
		c-2.284,5.694-3.632,12.372-4.013,18.59c-1.539,4.504-1.427,9.771-2.95,14.053c-0.413,7.168,1.094,14.863-0.983,21.763
		c-0.904,8.357-1.349,17.702,3.775,24.031c1.285,6.249,6.931,10.927,7.011,17.874l-1.19-0.745
		c-5.314-7.787-10.627-16.289-12.816-25.428c-1.84-3.631-4.616-7.518-3.315-12.29c2.775-6.631,0.587-15.308,1.459-21.985
		c-0.206-1.442,0.301-2.632,0.809-3.807l0.317,17.242c0.365,5.027-1.904,10.247,0.381,15.082c2.458-2.807,1.618-7.866,2.173-11.436
		c1.031-3.807,0.158-6.947,0.476-10.531c-0.889-3.362,0.428-8.121-0.206-11.975c-1.57-4.584,0.682-8.835,1.966-12.881
		c1.935-11.214,3.616-22.427,9.358-32.104c4.521-9.469,8.597-20.397,17.829-26.646c1.951-1.634,3.426-3.046,5.583-3.459
		c2.918-1.617,6.075-3.457,8.755-5.551c5.345-3.711,12.975-2.586,19.002-4.361C217.124,293.606,225.276,293.067,229.702,298.683"/>
	<path fill="#FFFFFF" d="M224.373,301.902c5.9,3.251,10.278,10.771,15.94,14.244c3.902,7.519,8.533,14.56,12.673,21.841
		c0.017,10.057,8.502,15.751,8.265,26.283c1.063,6.249,3.077,12.039,3.647,18.509c-1.427-0.269-2.332-2.441-3.013-3.901
		c-0.587-5.996-2.617-11.547-3.442-17.543c-3.014-4.376-5.298-9.215-5.647-14.734c-3.077-1.269-0.856-4.806-2.474-6.758
		c-1.792-5.789-4.298-11.118-7.788-15.973c-4.949-3.711-7.217-8.549-11.674-12.482c-1.792-5.789-8.502-5.694-12.991-8.2
		c-4.774-0.825-10.468-2.617-14.608,0.381c-5.536,1.078-10.595,2.648-14.768,6.867c-2.442,2.094-4.171,4.933-7.55,6.043
		c-5.155,5.631-8.438,12.976-12.419,19.59c-4.949,7.073-5.424,17.115-7.518,25.68c-0.604,5.267-0.492,10.771,1.57,15.133
		c0.571,5.993,0.206,11.736,1.015,17.73c-0.27,1.668-1.27,4.031,0.126,5.507c0.46,0.728,0.952,0.029,1.444-0.207
		c2.696-2.807,1.348-6.917,0.713-10.279l0.539-2.854l-0.682-11.991L165.019,364c-0.397-3.601,1.824-6.661,2.156-10.483
		c0.555-3.348-0.094-6.473,1.888-9.295c-0.19-2.634,2.475-4.014,3.236-6.154l0.207,2.157c-2.03,4.742-2.871,9.755-5.124,14.48
		c0.904,2.666-0.603,5.267-1.143,7.884c-0.507,1.428-0.301,3.108,0.635,4.092c5.488,0.349,2.284-5.933,4.029-9.01
		c0.634-6.93,3.87-12.594,6.17-18.525c1.507-3.077-2.3-4.124-1.285-6.741c3.696-4.949,5.282-11.135,11.119-14.83
		c2.237-4.013,7.312-6.06,10.961-8.375c4.599-2.522,10.563-1.19,15.401-3.475l6.408,2.063l8.708,6.661
		c3.282,3.188,6.582,5.663,8.882,9.533c1.347,4.346,5.836,6.361,6.692,10.929c2.03,5.076,4.331,10.151,4.664,15.909
		c1.872,1.951,1.332,4.821,3.204,6.535c1.825,4.108,4.853,7.772,4.98,12.8c1.809,5.06,0.684,11.754,5.393,15.449
		c3.079,1.73,1.777,5.791,3.649,8.216c4.203,5.125,7.629,11.657,10.611,17.48c0.841,5.042,3.854,9.183,5.663,14.006
		c-5.519,0.84-6.551-6.14-9.105-9.534c-2.03-5.551-5.282-10.419-7.55-15.973l-9.137-18.891c-2.045-5.06-2.394-10.816-4.917-15.671
		c-1.063-5.996-2.125-12.007-5.361-17.114l-1.173-0.745c-2.237-7.233-4.22-14.703-8.629-21.018
		c-5.631-4.679-7.866-12.165-14.989-14.719c-4.996-0.824-9.215-5.22-14.751-3.442c-3.394,1.602-6.55,3.442-10.389,3.601
		c-7.026,3.665-10.294,10.771-14.974,16.654c-2.505,4.728-1.681,10.977-4.188,15.466c-0.809,4.061-3.283,7.582-3.378,11.896
		c-3.22,4.711-1.713,11.929-5.869,16.147c0.143,3.585,1.76,6.741,1.205,10.326c0.349,5.503-0.254,11.007,0.095,16.511
		c-3.458,4.474-0.952,10.043-0.825,15.07c2.538,4.616,2.158,10.578,5.409,14.973c0.619,4.552,3.648,7.979,6.202,11.625l0.206,1.207
		c3.014,4.377,6.503,9.008,10.516,11.974c1.19,0.255,2.157-0.665,2.666-1.872c-0.191-2.155-2.824-2.218-3.744-3.661
		c-4.917-4.918-7.423-10.708-10.881-16.528c0.523-2.396-1.839-3.395-2.268-5.568c-2.807-2.934-1.982-7.47-4.537-10.865
		c-0.428-2.649-1.569-4.838-1.999-7.233c1.079-5.486,2.427-11.437,2.079-17.194c1.3-4.994-0.746-9.832-0.635-14.861
		c3.267-6.376,2.95-13.814,5.266-20.699c-0.111-5.519,3.093-9.738,5.583-14.242c1.602-7.14,4.869-13.53,8.819-19.432
		c2.935-2.315,5.853-4.171,8.534-6.503c3.141-1.127,6.25-1.063,9.627-2.174c8.613,0.191,17.131,4.696,21.017,12.436l8.359,11.452
		c1.063,6.251,2.601,12.261,6.313,17.385c2.745,5.806,1.872,12.721,4.854,18.288c-0.778,2.871,2.299,3.886,2.014,6.52
		c2.855,11.071,8.375,21.017,14.386,30.265c2.966,6.757,5.425,13.987,10.327,19.618l-0.557,3.333
		c-2.108-1.729-3.949-4.631-5.583-7.313c0.841-5.249-5.329-7.532-5.931-12.101c-3.063-2.697-2.697-7.965-6.234-10.2
		c-1.349-4.33-3.902-7.739-7.677-10.469c-2.063-3.868,0.191-8.375-3.315-11.801c-0.778-8.153-2.759-15.861-3.521-24.015
		c-3.459-5.82-5.965-11.88-8.455-18.161c-0.618-4.314-3.902-7.503-5.726-11.372c-3.284-2.714-5.552-8.026-10.326-8.852
		l-10.723-2.648c-14.434,3.03-19.764,16.321-24.093,28.187c-0.127,5.504-1.444,10.753-2.046,16.241
		c0.254,9.581-1.618,18.385-2.078,28.203c1.491,7.692,0.127,15.083,1.634,23.015c4.584,9.2,6.503,19.523,13.006,27.837
		c3.696,6.296,9.818,10.501,13.514,16.576c3.792,1.759,6.345,5.169,10.12,7.404l5.187,3.715c-3.141,1.363-5.964-0.857-8.328-2.094
		l-10.136-6.71c-4.409-6.551-9.548-12.182-14.672-18.273c-2.807-2.951-4.394-7.281-5.742-11.149
		c-3.22-5.583-5.742-10.661-6.789-17.146c-3.029-3.664,0.65-7.647-0.444-11.992c1.665-9.771-1-19.653,1.38-29.17
		c2.458-3.299,1.142-8.358,1.951-12.165c-0.413-3.126,0.38-6.456,1.174-9.311c0.016-0.477-0.46-0.968-0.698-1.222
		c-3.728,5.916-4.617,13.546-5.028,21.207c-2.253,4.251-0.223,9.563-1.523,14.321c1.126,2.904-0.841,5.252-0.19,8.615
		c0.872,3.853-0.413,7.423-0.254,11.243c0.302,7.662,2.776,14.674,4.521,21.89c6.027,8.757,7.423,21.24,18.082,26.743
		c2.57,2.222,3.22,5.584,5.552,8.041c3.775,2.712,8.026,5.188,12.039,7.695c0.46,0.949,1.649,1.222,1.856,2.425
		c-0.492,0.716-1.698,0.92-2.633,0.414c-5.663-3.951-12.769-7.455-16.94-13.548c-3.125,0.414-6.202-1.094-9.041-2.348l-9.121-9.31
		c-2.284-5.329-6.979-9.502-7.803-15.26l-2.316-3.17c-1.285-6.965-3.759-13.723-4.314-21.16c-3.426-7.266-3.205-17.084-2.3-24.714
		c0.27-1.919-0.396-3.6-1.586-4.346c-3.125,0.396-2.015,4.506-2.538,6.646c1.792,5.06,0.476,10.785,1.301,16.066
		c1.491,8.645,5.139,16.165,5.9,25.031c2.665,9.644,8.454,17.906,13.53,25.933c4.711,3.934,8.645,9.771,15.084,10.629
		c2.855,0.777,3.76,3.679,6.36,4.933c2.332,2.934,6.376,3.727,8.724,6.187c-3.378,0.633-5.9-3.966-9.739-4.3
		c-5.409-4.188-10.818-7.899-17.226-10.676c-9.374-8.597-16.068-19.761-20.334-32.072c-0.983-9.357-5.583-17.59-4.409-27.63
		c-0.143-4.075,0.682-9.073-1.38-12.72c-1.205,0.222-1.713,1.65-1.982,2.839c0.809,6.471-1.016,13.37,0.507,19.873
		c0.174,2.872,0.349,5.998,2.458,7.964c0.254,9.579,4.632,17.573,8.264,25.552c2.506,5.805,7.693,9.517,10.437,15.085
		c2.554,3.886,6.804,6.14,11.087,7.438c4.727,2.984,9.184,6.441,14.148,9.662c-3.394,1.363-5.948-2.047-9.279-2.857
		c-5.694-2.268-9.659-6.677-15.861-8.008c-1.158-1.236-1.11-3.38-1.792-4.838c-2.3-4.126-5.599-6.82-9.136-9.532
		c-1.396-1.476-0.381-4.093-1.539-5.554c-2.776-4.613-3.838-10.149-6.376-14.751c-0.619-4.551-4.837-8.008-4.489-12.784
		c0.888-7.405-0.159-14.606,0.967-21.76c-1.903-10.819,4.505-18.814,4.251-28.869c0.793-3.348,0.396-7.424,3.093-9.992
		c-0.365-4.791,3.3-7.821,3.395-12.61c1.475-1.174,1.047-3.569,2.03-4.981c2.475-3.537,4.473-7.074,5.757-11.118
		c6.599-5.838,10.152-14.624,18.162-18.986c4.585-2.284,8.946-4.347,14.45-4.458c5.329-2.743,12.261-2.125,17.717-0.078
		C222.453,301.854,223.658,301.173,224.373,301.902"/>
	<path fill="#FFFFFF" d="M313.371,335.767c1.887,11.77,7.883,21.968,7.598,34.642c-0.508,0.715-0.048,1.92-1.238,1.889
		c-1.157-1.936-0.84-5.045-1.744-7.456c-2.316-3.409-1.031-7.931-2.617-11.784c-4.172-5.616-2.078-13.942-6.979-19.082
		c-0.635-3.601-2.729-6.52-4.092-9.913c0.555-3.094-0.57-6.234-0.745-9.343C307.708,321.27,310.421,328.518,313.371,335.767"/>
	<path fill="#FFFFFF" d="M164.447,315.146c-0.84,5.251-4.758,9.231-7.486,13.468c-3.299,8.073-7.772,15.638-9.406,24.457
		c-0.127,5.267-1.428,10.025-2.745,14.783c-3.013,6.393-4.139,13.784-4.06,21.461l0.46,0.476l-0.032,12.214
		c-0.967,0.222-0.698-1.461-1.396-1.951c-1.11-4.33,1.634-9.295-0.667-13.182c-0.951-0.254-1.459,1.16-1.951,1.872l-0.286,12.436
		c1.587,3.871,2.696,7.979,3.077,12.53c4.378,7.045,4.902,15.91,10.247,22.493c5.313,8.739,15.005,14.465,20.556,22.728
		c-2.379-0.523-4.711-2.966-7.344-3.52l-3.759-2.951l-4.869-7.06c-0.904-2.17-3.76-3.188-4.188-5.598
		c-3.521-2.951-5.092-7.771-7.375-11.897c-1.364-3.614-1.745-7.707-4.061-11.102c-1.507-7.692-5.171-14.958-3.775-23.315
		c-0.873-4.078,0.634-7.172,2.616-10.232c2.285-5.693,3.141-11.657,4.473-17.605c-0.903-2.903,1.063-5.013,1.126-7.645
		c-0.65-3.126,2.03-5.22,2.585-8.074c-0.206-1.919,0.079-4.076,1.539-5.234c-0.127-4.553,3.061-7.835,4.108-11.881
		c2.966-4.234,4.314-10.437,8.93-13.436l2.49-4.504L164.447,315.146"/>
	<path fill="#FFFFFF" d="M208.146,320.206c-1.031,3.094-4.647,4.442-6.63,7.281c-4.092,0.856-4.933,6.106-7.375,8.691
		c-0.555,3.332,0.809,6.473,0.73,9.835l-1,12.657c-0.967,10.992-1.237,22.476-0.032,33.276c1.189,10.563,2.617,21.13,8.422,29.629
		c3.506,3.442,4.346,8.725,6.884,12.85c2.57,3.174,3.442,6.551,5.283,9.706c5.345,7.06,11.167,14.609,19.462,18.146
		c-2.665,1.872-5.727-0.604-8.581-1.396c-1.127-3.123-3.935-5.82-5.806-8.503l-4.933-3.948c-2.3-4.361-6.773-7.328-7.852-12.388
		c-1.856-2.904-5.393-4.9-6.757-8.28c-1.364-3.632-2.713-7.485-5.283-10.183c-2.205-8.186-1.284-17.273-4.695-24.762
		c0.159-6.946-1.158-12.244-0.761-19.176c0.555-3.567,0.889-7.628,2.396-10.722c-0.111-6.218,0.761-12.674,0.888-18.653
		c0.032-0.476-0.443-1.205-1.158-1.222c-2.681,2.094-0.349,5.029-2.332,7.614c-1.047,4.044,0.286,8.629-0.999,12.673
		c-0.127,5.251-2.158,10.231-2.03,15.259c1.126,3.634-0.413,8.138,0.698,11.755c-0.381,5.979,1.665,11.054,3.204,16.59
		c-0.349,4.773,2.205,8.914,2.824,13.482c2.649,9.39,10.42,15.308,14.053,23.777c3.521,3.425,5.33,7.771,9.835,10.022
		c0.428,1.937,2.332,2.937,2.521,4.855c-3.505-3.664-7.788-5.205-11.531-8.884c-1.126-3.377-3.981-4.154-5.583-7.059
		c-2.728-6.297-7.882-11.196-10.611-17.479c-2.268-5.805-4.536-11.595-6.313-17.622c-1.459-9.136-0.523-18.685-1.031-28.044
		c1.904-10.483,1.189-21.271,3.347-31.516c1.475-1.889,0.587-4.774,2.3-6.646c4.188-5.426,2.236-13.848,8.787-18.003
		c2.459-2.57,5.568-2.744,8.264-5.076C207.955,318.287,207.924,319.494,208.146,320.206"/>
	<path fill="#FFFFFF" d="M228.909,333.609c5.979,10.914,10.976,22.746,12.832,35.721c1.38,2.665,0.809,6.487,1.222,9.611
		c0.856,4.568,3.155,8.694,3.758,13.482c-1.03,3.809,0.08,7.423,1.682,10.581c3.744,3.918,3.854,9.658,7.344,13.813
		c5.186,3.951,4.758,12.071,10.437,15.307c1.665,0.523,3.775,2.015,4.219,3.934c-2.458,2.57-3.806-1.047-5.709-1.807
		c-2.808-2.934-5.821-7.313-10.104-8.615c-4.489-2.014-5.821-7.311-9.089-10.483c-1.602-3.395-4.885-6.819-4.061-11.119
		c5.964,1.094,3.157,8.455,6.423,11.882c3.077,1.745,3.935,6.312,7.519,6.867c0.571-4.046-2.712-7.233-4.791-10.389
		c-2.537-4.854-5.043-10.422-8.295-14.799c-1.823-3.871-1.967-8.186-2.347-12.501c-1.872-1.948-0.825-5.297-2.221-7.469
		c1.062-4.282-0.271-9.343-0.872-14.149c-3.125-10.356-5.029-21.19-10.563-30.644c-3.539-2.476-5.346-7.298-10.104-8.138
		c-0.968,0.46-3.125,0.175-3.395,1.84c0.444,1.697,2.871,0.317,3.791,1.761c2.824,1.745,4.458,4.172,7.042,6.393
		c1.983,7.218,5.441,13.292,6.948,20.509c1.507,7.455,3.981,14.688,4.03,23.063c-0.921,8.598,4.933,14.72,4.266,23.095
		c-1.872,8.564,3.474,15.387,8.121,21.73c2.539,4.122,6.773,7.328,11.277,9.342c2.57,2.934,4.647,6.329,6.25,9.724
		c-1.919,0.189-3.3-2.475-5.441-2.759c-2.125-1.967-4.235-3.682-6.836-4.696c-0.698-0.984-0.191-2.649-1.872-2.442
		c-7.771-5.441-8.533-14.086-13.402-20.891c-1.603-3.393-0.778-7.914-0.952-11.516c2.077-6.66-3.839-10.135-5.376-15.671
		c-1.459-9.627-1.222-20.159-5.329-29.105c-0.62-4.314,0.222-9.564-2.586-12.976c-0.936-0.745-1.681,0.667-1.936,1.382
		c-0.65,7.406,1.11,14.147,3.363,20.429c1.285,6.725,1.603,13.688,2.649,20.651l4.742,12.323
		c-0.762,12.421,5.727,21.905,11.738,31.614c2.57,2.934,6.345,5.169,7.693,9.04c2.807,2.697,5.883,4.202,8.215,7.139
		c-0.015,0.935-0.983,1.411-1.712,1.633c-7.185-0.175-7.962-8.088-12.912-11.548c-2.347-1.491-4.219-3.694-4.869-6.344
		c-5.536-9.691-10.563-19.858-12.705-30.931c-0.096-6.692-3.808-12.054-3.411-18.747c-1.554-5.774-3.331-11.325-5.615-16.64
		c0.349-4.314-0.523-8.406,0.047-12.688c1.523-3.314,2.094-7.613-0.238-10.786c-0.65-2.411-0.809-5.759-3.68-6.551
		c-1.682,0.205-1.475,2.125-1.507,3.569c3.251,4.139,1.951,8.897,0.65,13.657l1.507,7.216c-1.3,4.758,0.269,9.342,2.331,12.975
		c1.459,10.088,5.093,18.795,7.503,28.188c-0.206,9.324,4.425,16.384,7.106,24.33c3.711,5.361,5.932,13.071,11.594,16.543
		c2.855,1.269,3.744,4.395,5.837,6.601c-3.553-1.508-7.566-3.762-11.103-6.234c-4.442-4.648-6.456-10.676-8.248-16.702
		c-3.221-5.82-4.744-12.087-7.725-18.132c0.286-2.156-0.856-4.09-2.031-5.312c-2.712-6.771-2.569-13.468-3.363-20.905
		c-0.666-1.937-1.11-3.855-2.998-5.093c-1.665,0.19-0.761,2.379-1.269,3.553c0.111,5.758,2.141,11.312,2.729,17.066
		c2.696,7.251,4.917,15.197,8.106,22.446c4.298,10.88,7.121,23.38,17.986,30.087c3.791,1.763,7.566,4.014,11.12,6.252
		c-0.254,0.474-0.254,0.713-0.73,0.698c-3.759-3.682-10.262-1.668-14.006-5.583c-4.028-2.018-7.058-5.427-9.121-9.313
		c0.254-0.952-0.951-0.745-0.936-1.458c-2.332-2.918-2.236-6.503-3.601-9.661c-2.268-6.027-4.282-12.054-7.755-17.397
		c-1.729-7.71-5.409-14.5-6.187-22.414c1.459-1.156-0.667-2.41-0.159-3.839c-1.3-5.535-0.206-11.975,1.111-17.447
		c-1.507-6.741-1.111-14.386-1.904-21.587c-0.143-4.076,2.585-8.09,0.27-11.976c0.032-0.952,0.762-1.65,0.064-2.617
		c-1.428-0.269-2.173,1.142-2.919,2.077c-0.539,2.396-2.014,4.029-2.775,6.409c-0.809,4.282-0.191,8.375,2.601,11.547l-0.904,8.597
		l1.761,6.503l-1.729,12.896l2.221,18.002c2.03,5.79,4.061,11.581,7.296,16.688c0.396,3.123,1.539,5.772,3.173,8.215
		c2.268,5.061,2.617,10.582,5.154,15.435l6.249,8.993c4.949,3.712,10.612,7.184,16.56,8.754c0.476,0.254,0.46,0.984,0.223,1.206
		c-7.472,1.984-13.563-3.9-19.226-7.866c-6.011-9.232-11.054-19.4-14.64-29.771c-0.698-1.446-1.11-3.616-1.792-5.299
		c-5.361-7.074-6.345-16.194-7.344-24.824c-1.57-4.838-0.952-11.039-0.587-16.052c0.364-5.979-0.698-11.99,0.873-17.701
		c-1.396-1.95,0.872-6.693-2.982-5.821c-1.015,2.379,0.856,4.808,0.063,7.661c-2.775,6.646-0.079,14.371-1.205,21.763
		c-1.063,4.521,0.999,8.646,1.142,12.96c-0.143,5.979,1.887,11.291,2.728,17.049c3.981,3.937,4.077,10.152,7.075,15.006
		c1.745,7.709,6.63,13.799,10.072,20.589c3.711,5.347,7.439,9.738,13.372,12.261c2.584,1.745,5.678,2.759,7.771,4.98l-0.238,0.697
		c-3.822-0.792-8.104-1.854-11.151-4.551c-4.266-2.254-6.805-5.9-10.325-9.582c-3.506-3.664-3.125-9.881-8.09-12.625
		c-2.252-6.045-6.693-10.69-8.231-16.703c-2.348-2.696-2.729-6.535-3.839-10.149c-1.269-7.694-2.776-15.387-4.029-23.079
		c-0.317-7.661,1.285-14.561,1.444-21.985c-1.936-9.135,2.792-17.177,3.696-25.536c1.316-4.996,6.662-8.708,7.265-14.196
		c3.108,0.302,6.995-2.236,10.31-0.491C222.643,325.092,227.354,328.059,228.909,333.609"/>
	<path fill="#FFFFFF" d="M309.738,379.498c2.586,2.457,0.841,5.28,0.539,8.389c-0.729-0.015-0.983,1.174-2.173,0.669
		c-1.142-2.665-0.333-6.234-0.746-9.359c-0.65-3.125-1.997-6.741-0.729-9.835C308.962,372.059,308.137,376.341,309.738,379.498"/>
	<path fill="#FFFFFF" d="M256,405.574c4.395,7.278,8.073,13.814,11.485,21.557l0.411,2.646c-2.998-4.377-5.044-9.215-8.803-12.894
		c-2.205-7.71-10.469-12.912-9.564-21.509C253.304,397.85,252.955,402.623,256,405.574"/>
	<polyline fill="#FFFFFF" points="444.911,93.355 470.924,93.355 470.924,100.414 452.667,100.429 452.667,129.599 469.004,129.599 
		469.004,136.848 452.667,136.848 452.683,170.759 452.667,170.902 470.924,170.902 470.924,177.881 444.895,177.881 
		444.911,93.355 	"/>
	<path fill="#FFFFFF" d="M436.281,93.355v61.273c-0.269,5.663,0.444,11.753-1.442,16.718c-2.617,5.504-8.692,7.535-14.735,7.392
		c-5.33-0.032-10.627-1.951-13.229-6.456c-2.172-3.569-1.665-8.312-1.887-12.706l0.047-66.222h7.756l0.032,66.777
		c0.223,4.108-0.254,9.311,4.33,10.818c2.649,0.667,4.156,0.713,6.9,0c4.599-1.507,4.139-6.868,4.362-10.977V93.355h7.756"/>
	<polyline fill="#FFFFFF" points="454.603,241.248 454.617,189.587 445.973,189.587 445.973,183.02 470.924,183.02 470.924,189.587 
		462.438,189.587 462.421,241.248 454.603,241.248 	"/>
	<path fill="#FFFFFF" d="M436.06,183.02h6.933v58.228h-6.171c-1.603-4.298-2.982-8.66-4.521-12.975
		c-2.902-8.533-5.868-17.02-8.485-25.68l0.015,3.998l-0.015,34.657h-7.091V183.02h7.091c4.218,12.102,8.47,24.601,12.324,36.831
		l-0.08-1.348V183.02"/>
	<polyline fill="#FFFFFF" points="409.396,241.248 401.562,241.248 401.562,183.02 409.396,183.02 409.396,241.248 	"/>
	<path fill="#FFFFFF" d="M378.197,215.426v25.822h-7.725v-10.262l0.03-34.213l-0.03-13.752c4.504-0.032,8.93,0,13.322,0.191
		c4.633,0.19,8.472,2.728,10.137,6.884c1.919,4.536,2.284,10.659,0.919,15.576c-0.84,2.982-2.711,5.837-5.298,7.455
		c0.017,0.333,0.398,0.46,0.667,0.682c1.887,1.967,2.315,4.775,3.061,7.329c1.65,6.662,3.221,13.387,4.711,20.112h-7.835
		c-0.302-0.237-0.127-0.713-0.302-1.014c-1.745-6.9-3.029-14.006-5.107-20.779c-0.65-1.523-1.205-3.458-2.934-4.045
		c-1.047-0.27-2.301-0.476-3.411-0.206C378.324,215.235,378.197,215.33,378.197,215.426 M378.197,208.193
		c1.442,0.126,3.141,0.016,4.473-0.223c2.03-0.413,3.966-2.268,4.567-4.235c1.127-3.442,0.872-8.01-0.903-11.087
		c-1.349-2.522-4.442-2.872-7.248-2.951c-0.175,0.111-0.825-0.047-0.889,0.206V208.193L378.197,208.193L378.197,208.193z"/>
	<path fill="#FFFFFF" d="M342.746,183.02c4.346-0.127,8.09-0.079,12.499,0c1.936,0,4.473,0.651,5.964,1.57
		c6.075,3.537,7.137,11.436,6.297,18.416c-0.46,4.758-3.378,9.248-7.645,10.992c-2.729,1.031-5.885,1.015-9.025,1.063
		c-0.285,0-0.19,0.46-0.19,0.745v25.442h-7.899V183.02 M350.646,207.986c1.476,0.175,3.046,0.063,4.456-0.206
		c2.03-0.603,3.538-2.253,4.236-4.219c0.063-0.19,0.048-0.413,0.175-0.555c0.776-3.331,0.76-7.455-0.905-10.374
		c-1.094-2.188-3.744-2.966-6.17-2.903c-0.555,0.127-1.3-0.079-1.792,0.174V207.986L350.646,207.986L350.646,207.986z"/>
	<polyline fill="#FFFFFF" points="444.911,93.355 470.924,93.355 470.924,100.414 452.667,100.429 452.667,129.599 469.004,129.599 
		469.004,136.848 452.667,136.848 452.683,170.759 452.667,170.902 470.924,170.902 470.924,177.881 444.895,177.881 
		444.911,93.355 	"/>
	<path fill="#FFFFFF" d="M436.281,93.355v61.273c-0.269,5.663,0.444,11.753-1.442,16.718c-2.617,5.504-8.692,7.535-14.735,7.392
		c-5.33-0.032-10.627-1.951-13.229-6.456c-2.172-3.569-1.665-8.312-1.887-12.706l0.047-66.222h7.756l0.032,66.777
		c0.223,4.108-0.254,9.311,4.33,10.818c2.649,0.667,4.156,0.713,6.9,0c4.599-1.507,4.139-6.868,4.362-10.977V93.355h7.756"/>
	<polyline fill="#FFFFFF" points="386.825,170.918 401.562,170.902 401.562,177.881 379.022,177.881 379.037,93.577 379.037,93.355 
		386.825,93.355 386.825,170.918 	"/>
	<path fill="#FFFFFF" d="M365.396,97.336c6.662,6.107,7.995,17.384,4.901,26.124c-1.205,3.441-3.728,6.233-6.52,8.517
		c2.665,1.602,4.774,4.14,6.187,6.836c4.377,7.995,4.124,19.684,0.968,28.249c-1.793,5.425-7.154,9.946-12.959,10.675l-3.695,0.286
		l-11.405-0.111l-0.095-0.096l0.031-37.465l-0.063-46.902c4.489-0.127,9.2-0.048,13.657,0.207
		C359.876,93.958,362.826,95.036,365.396,97.336 M360.114,103.649c-1.982-2.792-5.6-3.093-8.993-2.935
		c-0.207,0.016-0.523-0.016-0.476,0.144v27.884c1.649,0.19,3.362-0.032,4.885-0.27c2.982-0.587,5.171-3.347,6.439-5.996
		c2.205-5.313,1.698-12.641-0.967-17.511L360.114,103.649L360.114,103.649L360.114,103.649z M361.003,139.67
		c-1.634-1.967-3.918-3.251-6.6-3.395c-1.205-0.032-2.664-0.174-3.758,0.127l0.032,12.499l-0.032,21.825
		c1.412,0.19,3.029,0,4.425-0.19c3.457-0.317,6.551-2.855,7.852-5.948c2.87-6.996,2.776-16.94-0.904-23.507L361.003,139.67
		L361.003,139.67L361.003,139.67z"/>
	<polyline fill="#FFFFFF" points="454.603,241.248 454.617,189.587 445.973,189.587 445.973,183.02 470.924,183.02 470.924,189.587 
		462.438,189.587 462.421,241.248 454.603,241.248 	"/>
	<path fill="#FFFFFF" d="M436.06,183.02h6.933v58.228h-6.171c-1.603-4.298-2.982-8.66-4.521-12.975
		c-2.902-8.533-5.868-17.02-8.485-25.68l0.015,3.998l-0.015,34.657h-7.091V183.02h7.091c4.218,12.102,8.47,24.601,12.324,36.831
		l-0.08-1.348V183.02"/>
	<polyline fill="#FFFFFF" points="409.396,241.248 401.562,241.248 401.562,183.02 409.396,183.02 409.396,241.248 	"/>
	<path fill="#FFFFFF" d="M378.197,215.426v25.822h-7.725v-10.262l0.03-34.213l-0.03-13.752c4.504-0.032,8.93,0,13.322,0.191
		c4.633,0.19,8.472,2.728,10.137,6.884c1.919,4.536,2.284,10.659,0.919,15.576c-0.84,2.982-2.711,5.837-5.298,7.455
		c0.017,0.333,0.398,0.46,0.667,0.682c1.887,1.967,2.315,4.775,3.061,7.329c1.65,6.662,3.221,13.387,4.711,20.112h-7.835
		c-0.302-0.237-0.127-0.713-0.302-1.014c-1.745-6.9-3.029-14.006-5.107-20.779c-0.65-1.523-1.205-3.458-2.934-4.045
		c-1.047-0.27-2.301-0.476-3.411-0.206C378.324,215.235,378.197,215.33,378.197,215.426 M378.197,208.193
		c1.442,0.126,3.141,0.016,4.473-0.223c2.03-0.413,3.966-2.268,4.567-4.235c1.127-3.442,0.872-8.01-0.903-11.087
		c-1.349-2.522-4.442-2.872-7.248-2.951c-0.175,0.111-0.825-0.047-0.889,0.206V208.193L378.197,208.193L378.197,208.193z"/>
	<path fill="#FFFFFF" d="M342.746,183.02c4.346-0.127,8.09-0.079,12.499,0c1.936,0,4.473,0.651,5.964,1.57
		c6.075,3.537,7.137,11.436,6.297,18.416c-0.46,4.758-3.378,9.248-7.645,10.992c-2.729,1.031-5.885,1.015-9.025,1.063
		c-0.285,0-0.19,0.46-0.19,0.745v25.442h-7.899V183.02 M350.646,207.986c1.476,0.175,3.046,0.063,4.456-0.206
		c2.03-0.603,3.538-2.253,4.236-4.219c0.063-0.19,0.048-0.413,0.175-0.555c0.776-3.331,0.76-7.455-0.905-10.374
		c-1.094-2.188-3.744-2.966-6.17-2.903c-0.555,0.127-1.3-0.079-1.792,0.174V207.986L350.646,207.986L350.646,207.986z"/>
	<path fill="#FFFFFF" d="M485.151,103.618h2.094c1.396,0,2.601-0.191,2.601-1.904c0-1.491-1.363-1.745-2.569-1.745h-2.125V103.618
		L485.151,103.618z M482.788,98.177h4.727c3.046,0,4.694,1.047,4.694,3.728c0,2.173-1.236,3.235-3.33,3.426l3.426,5.551h-2.426
		l-3.301-5.456h-1.427v5.456h-2.363V98.177L482.788,98.177z M495.604,104.584c0-5.265-3.791-9.057-8.485-9.057
		c-4.695,0-8.486,3.792-8.486,9.057c0,5.251,3.791,9.042,8.486,9.042C491.813,113.626,495.604,109.835,495.604,104.584
		L495.604,104.584z M475.888,104.584c0-6.186,5.045-11.229,11.23-11.229c6.187,0,11.214,5.044,11.214,11.229
		c0,6.186-5.027,11.214-11.214,11.214C480.933,115.799,475.888,110.771,475.888,104.584L475.888,104.584z"/>
	<path fill="#FFFFFF" d="M212.111,240.582c8.819,1.396,18.13,2.57,25.95,6.091c9.025,3.315,16.797,9.009,24.093,14.671
		c3.331,1.032,4.949,3.459,8.026,4.965c3.823,0.333,6.155,3.252,9.469,4.537c4.029,1.998,4.157,7.027,7.677,9.739
		c2.712,7.486,11.436,12.958,14.386,20.208c3.791,1.761,3.918,6.552,6.25,9.469c3.474,5.346,7.423,10.231,8.962,16.734
		c3.727,4.378,3.585,10.612,6.836,15.228c1.618,2.189,2.507,5.33,1.253,7.931c1.127,3.141,0.57,6.487,1.459,9.374
		c0,0.476-0.729,0.459-0.729,0.936c-1.429-0.507-1.634-1.95-1.841-3.155c0.509-1.65-1.38-2.666-1.585-4.109
		c-1.144-2.41-0.604-5.52-3.188-7.486c1.285-4.044-1.745-7.218-1.682-10.58c-2.491-5.551-3.077-11.801-7.772-16.21
		c-1.538-5.535-6.471-9.961-8.501-15.037c-2.142-0.762-2.094-3.156-3.237-5.091c-2.299-4.378-8.691-7.392-9.295-12.657l-8.66-8.582
		c-1.521-6.503-8.438-7.851-13.672-9.659c-3.251-4.14-7.265-6.852-11.754-9.358c-4.473-3.205-9.5-3.332-13.72-7.25
		c-4.266-1.776-8.026-5.218-13.07-4.36c-6.614-3.982-15.227-4.426-23.142-3.888c-5.06,1.809-10.817,2.143-15.655,4.68
		c-7.105,6.534-18.526,3.886-25.156,11.15c-0.983,1.174-2.633-0.063-3.854,0.873c-5.758,0.825-6.852,7.026-12.15,8.342
		c-1.951,1.634-4.394,3.252-6.805,3.918c-3.458,4.949-9.231,6.011-13.609,9.263c-1.919,0.19-2.221,2.586-3.664,3.268
		c-2.935,2.808-6.836,5.361-7.883,9.391c-1.602,7.628-3.22,15.734-8.851,20.873c-2.506,4.981-5.028,10.421-6.107,16.146
		c-3.68,3.506-2.617,9.519-4.394,14.022c-5.012,10.184-0.253,22.016-2.632,32.024c0.57,6.232,1.38,12.483,3.41,18.271
		c0.19,2.158,0.381,4.554,1.76,6.503c1.079,5.536,4.092,10.152,5.885,15.449c1.824,4.125,5.329,7.55,6.662,11.897
		c-0.714,0.461-1.665-0.048-2.617-0.302c-2.348-2.443-2.252-6.519-4.331-9.677l-4.631-7.296L94.165,395.2
		c-0.587-5.758-2.617-11.563-1.523-17.289c-1.364-3.141-0.095-6.694-0.968-10.072l-0.682-12.229
		c0.555-3.808,2.792-7.345,1.935-11.437c2.015-4.268,2.125-9.295,3.664-13.563c4.219-6.852,6.075-14.956,11.468-20.811
		c0.063-2.394,1.301-3.806,2.776-5.678c-0.634-3.854,3.474-5.44,3.077-9.278c-4.283-1.047-4.647,4.456-6.614,6.805
		c-2.079,6.883-9.835,11.023-10.247,18.906c-3.267,6.63-6.741,12.546-7.883,20.176c0.285,8.628-4.204,16.671-2.253,25.569
		c0.159,3.601,1.031,7.201,1.666,10.817c-0.302,3.092-1.84,7.137,0.507,9.58c0.698,11.501,5.266,21.192,9.343,31.104
		c2.109,2.188,2.998,5.093,4.378,7.758c3.743,4.154,6.726,9.721,11.928,12.719l6.265,8.757c-4.743-2.269-7.249-7.819-10.754-11.737
		c-2.379-0.778-4.727-2.744-5.139-5.377c-5.139-6.106-8.327-12.882-12.023-19.192c0.571-3.569-1.523-6.743-3.601-9.662
		c-2.712-7.484-5.393-16.161-3.03-24.727c-2.807-2.936-0.777-8.392-1.634-12.245c-1.253-8.407,2.046-16.718,0.08-24.903
		c5.091-2.997,3.331-9.977,6.788-14.434c2.3-6.187,5.536-12.086,9.025-17.765c2.966-3.998,4.283-9.469,8.677-12.959
		c3.14-1.603,6.55-3.935,8.057-7.249c3.934-4.695,9.295-8.645,15.1-11.151c5.6-4.171,11.452-8.835,17.289-12.768
		c1.951-1.872,5.092-3.235,7.059-5.346c5.06-1.332,9.454-5.06,14.989-6.359c3.617-0.635,6.995-2,10.595-2.634
		c3.125-0.889,5.821-2.982,8.946-4.107c1.919-0.191,3.838-0.396,5.076-1.809c0.032-1.666-2.364-1.476-3.553-1.745
		c-5.948-1.57-8.073,7.232-14.212,3.98c-6.233,0.096-10.405,4.314-15.481,7.075c-7.265,2.95-13.832,7.581-20.635,11.974
		c-2.443,2.332-5.362,4.664-8.978,5.774c-4.41,4.219-10.23,7.439-15.576,10.66c-1.936,1.632-3.442,4.235-5.393,6.105
		c-9.707,5.774-13.308,16.703-19.716,24.697c-5.329,12.801-11.595,25.585-11.214,40.447c-1.079,5.234-0.729,10.754,0.111,16.273
		c-1.094,16.495,1.919,31.883,8.296,45.444c0.983,9.833,10.214,14.831,14.798,23.079c5.313,8.739,14.767,13.988,23.523,18.731
		c3.997,3.68,9.184,6.424,13.672,9.645c3.553,1.522,7.09,3.98,10.421,4.79c-1.903-0.523-4.298-0.824-6.439-1.111
		c-4.727-2.744-9.422-6.438-14.656-8.23c-4.013-2.729-6.281-8.044-11.785-8.647c-4.219-3.693-9.914-5.725-13.133-11.087
		c-4.203-4.867-8.882-9.771-12.847-14.402c-3.363-10.371-9.391-19.367-12.261-29.724l-2.712-17.051l-0.175-13.419
		c-1.396-2.188-0.603-5.521-0.063-7.899c0.762-1.902,0.079-3.838-0.365-5.52l2.062-16.956c1.777-4.504,1.903-9.533,2.966-14.291
		c5.425-6.821,7.994-14.909,13.419-21.969c5.408-5.853,9.627-12.704,15.496-17.828c2.729-4.489,7.55-5.821,11.69-8.835
		c3.363-0.65,5.107-3.489,7.788-5.583c10.928-6.931,21.841-13.625,33.722-19.573c3.188-3.759,6.836-6.313,11.626-6.439
		c6.916,1.586,11.833-4.045,18.272-3.172C200.389,240.074,206.623,239.979,212.111,240.582"/>
	<path fill="#FFFFFF" d="M127.807,252.542l-3.49,5.678c-7.265,3.664-12.182,9.771-18.764,14.418
		c-0.983,1.65-1.999,4.013-4.172,4.678c-3.251,6.156-10.723,8.153-12.546,15.053c-1.459,1.158-1.983,2.824-3.664,3.506
		c-4.235,6.836-7.042,14.688-10.326,22.271c-3.506,6.866-3.696,15.227-6.266,22.603c-2.791,6.867,0.144,14.846-0.967,21.762
		c-1.872-2.188-0.349-5.996-1-8.883c-0.761-8.392,0.619-16.988,3.426-24.348c1.396-8.58,4.441-16.416,7.962-23.998
		c0.381-5.726,5.456-8.248,7.962-12.976c3.505-6.867,7.963-13.466,14.783-18.352l7.375-8.675c2.459-3.063,6.551-3.697,9.723-6.488
		c5.679-7.296,12.722-11.927,20.256-17.02l5.075-1.792C138.751,244.896,133.152,249.083,127.807,252.542"/>
</g>
</svg>
